<svg width="279" height="279" viewBox="0 0 279 279" fill="none" xmlns="http://www.w3.org/2000/svg">
<g opacity="0.45">
<path d="M210.333 122.42L205.037 132.056C204.532 133.029 203.835 133.889 202.988 134.584C202.141 135.279 201.162 135.795 200.109 136.1C199.057 136.406 197.953 136.494 196.866 136.36C195.778 136.226 194.729 135.872 193.782 135.321C191.86 134.26 190.436 132.48 189.823 130.372C189.21 128.263 189.458 125.997 190.512 124.071L198.988 108.654C199.067 108.509 199.217 108.592 199.301 108.442C199.228 108.213 199.228 108.213 199.301 108.062C200.402 106.182 202.182 104.795 204.274 104.186C206.366 103.577 208.612 103.792 210.55 104.787C219.891 109.92 231.525 106.667 236.581 97.477C241.709 88.1417 238.143 76.725 228.802 71.5858C225.929 69.9932 222.687 69.1856 219.403 69.2444C216.118 69.3032 212.907 70.2262 210.093 71.9206C209.149 72.5001 208.099 72.8858 207.004 73.0549C205.909 73.2241 204.792 73.1734 203.717 72.9059C202.642 72.6384 201.632 72.1593 200.744 71.4967C199.856 70.8341 199.11 70.0013 198.548 69.0469C197.994 68.1121 197.632 67.0771 197.48 66.0015C197.328 64.9259 197.391 63.8309 197.664 62.7796C197.938 61.7284 198.416 60.7415 199.073 59.876C199.729 59.0104 200.55 58.2832 201.488 57.7362C206.801 54.551 212.855 52.8127 219.048 52.6942C225.241 52.5758 231.357 54.0813 236.787 57.0611C253.985 66.5192 260.402 88.1863 250.949 105.378C247.085 112.376 240.973 117.865 233.602 120.957C226.231 124.05 218.033 124.565 210.333 122.42ZM192.477 154.878L191.009 157.546C190.504 158.519 189.807 159.38 188.96 160.075C188.112 160.771 187.132 161.288 186.08 161.593C185.027 161.899 183.922 161.988 182.834 161.854C181.746 161.72 180.696 161.367 179.749 160.816C177.824 159.751 176.401 157.966 175.792 155.852C175.183 153.738 175.438 151.47 176.501 149.544L177.969 146.877C179.05 144.976 180.83 143.571 182.93 142.961C185.03 142.35 187.286 142.582 189.218 143.607C190.185 144.12 191.039 144.822 191.73 145.671C192.421 146.519 192.935 147.498 193.242 148.548C193.548 149.599 193.642 150.7 193.516 151.787C193.391 152.875 193.048 153.926 192.51 154.878H192.477Z" fill="#EBEBEB"/>
<path d="M176.685 52.2902L177.801 44.9525C177.894 44.2183 178.135 43.5106 178.51 42.8724C178.885 42.2343 179.385 41.6789 179.981 41.24C180.577 40.8012 181.256 40.488 181.977 40.3195C182.697 40.151 183.445 40.1306 184.173 40.2597C184.9 40.368 185.599 40.6189 186.228 40.9978C186.858 41.3768 187.407 41.8764 187.843 42.468C188.279 43.0596 188.594 43.7315 188.769 44.4452C188.945 45.1588 188.978 45.9001 188.866 46.6265L187.086 58.3445C187.086 58.4561 186.952 58.4393 186.936 58.5509C187.036 58.6793 187.036 58.6793 187.019 58.7965C186.757 60.2446 185.951 61.5377 184.766 62.4111C183.581 63.2845 182.108 63.6721 180.647 63.4948C178.967 63.2002 177.246 63.2443 175.583 63.6246C173.921 64.0048 172.351 64.7135 170.967 65.709C169.582 66.7045 168.411 67.9667 167.521 69.4215C166.631 70.8762 166.041 72.4941 165.786 74.1801C165.53 75.8661 165.614 77.5862 166.033 79.2393C166.452 80.8923 167.197 82.445 168.224 83.806C169.252 85.167 170.541 86.309 172.016 87.1647C173.491 88.0204 175.122 88.5726 176.813 88.789C179.003 89.1336 181.246 88.8965 183.315 88.1012C185.384 87.306 187.208 85.9806 188.604 84.258C189.067 83.671 189.643 83.1821 190.297 82.8199C190.951 82.4577 191.671 82.2294 192.414 82.1483C193.157 82.0673 193.909 82.1351 194.626 82.3479C195.343 82.5607 196.01 82.9141 196.589 83.3875C197.156 83.8527 197.625 84.4249 197.97 85.0716C198.316 85.7182 198.53 86.4266 198.602 87.1563C198.673 87.8859 198.601 88.6225 198.387 89.3239C198.174 90.0253 197.825 90.6778 197.359 91.2442C194.87 94.3421 191.651 96.7734 187.99 98.3197C184.329 99.866 180.342 100.479 176.386 100.103C172.43 99.7277 168.629 98.3754 165.325 96.1679C162.02 93.9603 159.316 90.9666 157.455 87.4556C155.593 83.9447 154.633 80.0263 154.66 76.0525C154.687 72.0788 155.701 68.1739 157.61 64.6888C159.52 61.2036 162.265 58.2472 165.599 56.085C168.933 53.9229 172.752 52.6228 176.713 52.3013L176.685 52.2902ZM180.435 27.5652L180.742 25.5341C180.834 24.7994 181.075 24.0911 181.449 23.4523C181.824 22.8135 182.324 22.2575 182.92 21.818C183.516 21.3786 184.195 21.0649 184.916 20.896C185.637 20.7272 186.385 20.7067 187.114 20.8357C187.842 20.944 188.54 21.195 189.17 21.5744C189.801 21.9537 190.349 22.4539 190.786 23.0461C191.222 23.6383 191.536 24.3108 191.712 25.0251C191.887 25.7394 191.919 26.4813 191.807 27.2081L191.5 29.2392C191.257 30.6954 190.456 31.9997 189.267 32.8757C188.079 33.7517 186.596 34.1306 185.133 33.932C184.403 33.8307 183.7 33.5845 183.067 33.2077C182.433 32.8309 181.881 32.3313 181.443 31.738C181.005 31.1448 180.691 30.4701 180.518 29.7535C180.344 29.0369 180.316 28.2928 180.435 27.5652Z" fill="#EBEBEB"/>
<path d="M48.7078 68.634L45.5495 61.938C45.2186 61.2759 45.0257 60.5535 44.9825 59.8145C44.9393 59.0756 45.0468 58.3356 45.2983 57.6395C45.5498 56.9434 45.9402 56.3056 46.4457 55.7649C46.9512 55.2243 47.5614 54.792 48.239 54.4943C48.9034 54.1806 49.6232 54.0012 50.3571 53.9663C51.091 53.9315 51.8245 54.0419 52.5156 54.2913C53.2067 54.5407 53.8418 54.9241 54.3843 55.4195C54.9269 55.9149 55.3662 56.5126 55.6772 57.1783L60.7327 67.9309C60.7773 68.0314 60.6713 68.0816 60.7327 68.1876C60.8833 68.2378 60.8833 68.2378 60.9335 68.3439C61.5233 69.6924 61.5738 71.2158 61.0745 72.6004C60.5753 73.9851 59.5643 75.1257 58.2496 75.7876C56.6915 76.4777 55.2869 77.472 54.1184 78.7123C52.9498 79.9526 52.0408 81.4139 51.4446 83.0103C50.8485 84.6067 50.5772 86.3061 50.6468 88.0087C50.7163 89.7114 51.1253 91.383 51.8497 92.9255C52.5741 94.4679 53.5993 95.8501 54.8652 96.9909C56.131 98.1318 57.612 99.0083 59.2212 99.5689C60.8304 100.13 62.5354 100.363 64.2361 100.256C65.9368 100.149 67.5989 99.7029 69.125 98.9446C71.1365 98.0097 72.8662 96.5611 74.1397 94.7449C75.4132 92.9287 76.1855 90.809 76.379 88.5993C76.4371 87.8551 76.6428 87.1299 76.984 86.466C77.3253 85.8022 77.7952 85.2128 78.3665 84.7324C78.9378 84.252 79.599 83.8901 80.3116 83.6679C81.0242 83.4456 81.7739 83.3674 82.517 83.4378C83.2475 83.5076 83.9571 83.7209 84.6051 84.0654C85.2531 84.41 85.8267 84.8789 86.2932 85.4454C86.7597 86.0119 87.1098 86.6649 87.3236 87.367C87.5374 88.069 87.6106 88.8063 87.539 89.5367C87.188 93.4926 85.8606 97.2996 83.6758 100.616C81.491 103.933 78.5171 106.655 75.0209 108.539C71.5247 110.423 67.6156 111.409 63.6441 111.41C59.6726 111.411 55.763 110.426 52.266 108.544C48.769 106.661 45.794 103.94 43.6077 100.625C41.4214 97.3093 40.0924 93.5029 39.7397 89.5471C39.387 85.5913 40.0217 81.6098 41.5869 77.9598C43.1522 74.3098 45.5989 71.1054 48.7078 68.634ZM38.0723 45.9959L37.2018 44.1378C36.8706 43.4756 36.6774 42.7531 36.6338 42.014C36.5901 41.275 36.6971 40.5347 36.948 39.8382C37.199 39.1417 37.5888 38.5033 38.0937 37.9619C38.5987 37.4205 39.2084 36.9873 39.8858 36.6885C40.5508 36.3741 41.2714 36.1943 42.0061 36.1594C42.7408 36.1245 43.4752 36.2352 44.167 36.4852C44.8588 36.7351 45.4944 37.1194 46.0371 37.6159C46.5798 38.1123 47.0191 38.7112 47.3295 39.3781L48.2056 41.2362C48.8139 42.5824 48.8739 44.1126 48.3729 45.5023C47.8718 46.8919 46.849 48.0318 45.5216 48.6799C44.8577 49.0015 44.1363 49.1872 43.3996 49.226C42.6629 49.2649 41.926 49.156 41.232 48.906C40.538 48.656 39.9009 48.2697 39.3583 47.77C38.8157 47.2702 38.3785 46.6671 38.0723 45.9959Z" fill="#EBEBEB"/>
<path d="M170.19 201.689C170.19 201.689 156.748 225.46 156.742 225.477C154.583 230.27 152.775 234.511 152.044 236.793C152.042 236.804 152.042 236.815 152.044 236.826C151.814 237.342 151.707 237.903 151.731 238.467C151.731 238.467 151.731 238.5 151.731 238.512C152.725 240.119 190.529 258.493 192.064 258.689C193.598 258.884 194.296 254.532 193.381 252.646C192.465 250.76 181.149 237.25 181.149 237.25L194.346 213.39L170.19 201.689Z" fill="#F7A9A0"/>
<path d="M191.456 258.555C189.921 258.354 152.719 240.141 151.732 238.511C151.728 238.499 151.728 238.485 151.732 238.472C151.706 237.909 151.811 237.348 152.039 236.832C152.039 236.832 152.039 236.804 152.039 236.793C152.77 234.511 154.578 230.27 156.731 225.477C156.731 225.477 158.997 221.32 159.901 219.897L183.945 232.323L181.155 237.267C181.155 237.267 191.88 250.659 192.784 252.523C193.688 254.387 192.99 258.756 191.456 258.555Z" fill="#EBEBEB"/>
<path d="M192.142 258.042C190.602 257.807 152.931 238.4 151.966 236.748C151.586 236.129 154.097 230.476 157.323 223.73L157.423 223.524L181.863 235.772L181.64 236.179C181.64 236.179 192.739 250.051 193.609 251.982C194.48 253.912 193.687 258.281 192.142 258.042Z" fill="#263238"/>
<path d="M192.471 256.356C186.199 252.93 160.593 239.7 154.137 236.793C154.081 236.765 154.064 236.793 154.137 236.832C160.275 240.364 185.993 253.382 192.438 256.462C192.555 256.529 192.605 256.429 192.471 256.356Z" fill="white"/>
<path d="M183.655 237.301C181.395 235.549 178.142 234.36 175.313 235.152C175.207 235.186 175.251 235.342 175.346 235.359C178.13 235.809 180.858 236.558 183.482 237.591C183.518 237.598 183.556 237.595 183.59 237.58C183.624 237.565 183.653 237.539 183.672 237.508C183.691 237.476 183.7 237.438 183.697 237.401C183.694 237.364 183.679 237.329 183.655 237.301Z" fill="white"/>
<path d="M184.899 239.321C182.639 237.563 179.386 236.374 176.557 237.172C176.451 237.172 176.496 237.356 176.59 237.373C179.374 237.824 182.102 238.572 184.726 239.605C184.762 239.612 184.798 239.607 184.831 239.592C184.864 239.577 184.891 239.553 184.91 239.522C184.929 239.491 184.938 239.456 184.936 239.42C184.934 239.384 184.921 239.349 184.899 239.321Z" fill="white"/>
<path d="M186.138 241.335C183.906 239.583 180.63 238.389 177.801 239.187C177.69 239.22 177.74 239.371 177.829 239.388C180.614 239.848 183.341 240.606 185.965 241.647C186.006 241.67 186.055 241.676 186.101 241.663C186.146 241.65 186.185 241.619 186.208 241.578C186.231 241.536 186.236 241.487 186.223 241.442C186.21 241.396 186.179 241.358 186.138 241.335Z" fill="white"/>
<path d="M161.474 230.945C159.449 228.155 155.135 231.319 157.166 234.098C159.197 236.877 163.494 233.724 161.474 230.945Z" fill="white"/>
<path opacity="0.1" d="M183.303 238.266L186.015 255.179C189.424 256.853 191.779 257.969 192.153 258.047C193.693 258.287 194.486 253.901 193.626 251.982C192.957 250.542 186.434 242.205 183.303 238.266Z" fill="black"/>
<path d="M193.414 256.987C193.972 257.59 192.644 259.777 192.064 259.71C191.484 259.643 150.51 238.305 149.89 237.786C149.271 237.267 150.816 234.901 151.698 235.186C152.58 235.47 193.414 256.987 193.414 256.987Z" fill="#07AEAF"/>
<path d="M159.845 217.659L186.93 232.128C186.93 232.128 221.124 183.392 221.811 170.592C222.754 152.909 207.654 96.7684 207.654 96.7684L183.582 96.601C183.582 96.601 193.375 154.332 192.577 164.18C192.153 169.336 159.845 217.659 159.845 217.659Z" fill="#263238"/>
<path d="M189.302 226.548C187.907 225.544 175.062 218.105 165.308 213.351C165.295 213.345 165.279 213.344 165.265 213.348C165.251 213.353 165.239 213.363 165.232 213.376C165.226 213.39 165.225 213.405 165.229 213.419C165.234 213.433 165.244 213.445 165.258 213.452C168.221 215.41 187.388 225.912 189.252 226.654C189.291 226.654 189.363 226.548 189.302 226.548Z" fill="#37474F"/>
<path d="M195.914 151.849C194.798 143.4 193.565 134.963 192.164 126.554C190.764 118.145 189.268 109.675 187.499 101.299C187.287 100.273 187.059 99.2515 186.835 98.2303C186.829 98.1978 186.809 98.1692 186.782 98.1509C186.754 98.1326 186.72 98.126 186.688 98.1327C186.655 98.1393 186.626 98.1586 186.608 98.1864C186.59 98.2141 186.583 98.248 186.59 98.2805C188.074 106.589 189.598 114.898 190.965 123.229C192.332 131.56 193.626 139.907 194.742 148.272C195.025 150.34 195.3 152.412 195.568 154.488C195.901 156.624 196.106 158.778 196.182 160.938C196.218 163.001 195.867 165.053 195.15 166.987C194.382 168.877 193.448 170.696 192.36 172.422C188.046 179.793 168.516 212.007 168.003 212.944C167.969 213.005 168.059 213.067 168.098 213.005C172.779 205.751 187.304 182.533 191.724 175.061C193.716 171.685 196.003 168.265 196.651 164.32C197.326 160.202 196.455 155.916 195.914 151.849Z" fill="#37474F"/>
<path d="M188.978 217.659C188.978 217.659 188.705 245.135 188.705 245.152C188.85 250.408 189.073 255.012 189.408 257.383C189.405 257.396 189.405 257.409 189.408 257.422C189.427 257.986 189.576 258.538 189.843 259.035C189.843 259.035 189.843 259.035 189.843 259.068C191.439 260.084 233.473 260.145 234.935 259.654C236.397 259.163 235.119 254.945 233.49 253.639C231.86 252.333 215.773 245.118 215.773 245.118V217.659H188.978Z" fill="#F7A9A0"/>
<path d="M188.76 239.51C188.76 239.51 188.705 245.135 188.705 245.152C188.85 250.408 189.073 255.012 189.408 257.383C189.405 257.396 189.405 257.409 189.408 257.422C189.489 257.975 189.635 258.516 189.843 259.035C189.843 259.035 189.843 259.035 189.843 259.068C191.439 260.084 233.473 260.145 234.935 259.654C236.397 259.163 235.119 254.945 233.49 253.639C231.86 252.333 215.773 245.118 215.773 245.118V239.382L188.76 239.51Z" fill="#EBEBEB"/>
<path d="M234.991 259.604C233.501 260.078 191.138 259.33 189.547 258.276C188.934 257.885 188.683 251.708 188.593 244.231V243.997L215.935 244.175V244.638C215.935 244.638 232.028 252.177 233.657 253.522C235.287 254.866 236.481 259.135 234.991 259.604Z" fill="#263238"/>
<path d="M234.539 257.952C227.402 257.651 198.581 257.11 191.506 257.355C191.445 257.355 191.445 257.394 191.506 257.4C198.576 257.852 227.402 258.159 234.545 258.069C234.69 258.069 234.69 257.958 234.539 257.952Z" fill="white"/>
<path d="M218.206 244.761C215.416 244.203 211.956 244.555 209.775 246.524C209.691 246.597 209.803 246.72 209.892 246.692C212.59 245.871 215.368 245.342 218.178 245.113C218.22 245.109 218.26 245.091 218.29 245.061C218.32 245.031 218.339 244.991 218.342 244.949C218.345 244.906 218.334 244.864 218.309 244.83C218.284 244.796 218.247 244.771 218.206 244.761Z" fill="white"/>
<path d="M220.209 246.017C217.419 245.459 213.965 245.816 211.783 247.78C211.7 247.858 211.783 247.975 211.901 247.947C214.6 247.128 217.38 246.6 220.192 246.374C220.216 246.375 220.239 246.371 220.261 246.363C220.284 246.355 220.304 246.343 220.321 246.327C220.339 246.312 220.353 246.292 220.363 246.271C220.373 246.25 220.378 246.227 220.379 246.204C220.38 246.18 220.377 246.157 220.369 246.135C220.361 246.112 220.349 246.092 220.333 246.075C220.317 246.057 220.298 246.043 220.277 246.033C220.256 246.023 220.233 246.018 220.209 246.017Z" fill="white"/>
<path d="M222.218 247.278C219.428 246.72 215.974 247.071 213.792 249.041C213.703 249.114 213.792 249.231 213.904 249.208C216.605 248.387 219.387 247.858 222.201 247.629C222.243 247.624 222.282 247.604 222.31 247.573C222.339 247.543 222.356 247.503 222.358 247.461C222.36 247.418 222.347 247.377 222.321 247.344C222.296 247.31 222.259 247.287 222.218 247.278Z" fill="white"/>
<path d="M235.666 258.097C236.419 258.404 236.224 260.943 235.666 261.138C235.108 261.334 188.923 260.318 188.141 260.128C187.36 259.939 187.7 257.126 188.616 256.998C189.531 256.87 235.666 258.097 235.666 258.097Z" fill="#07AEAF"/>
<path d="M195.501 248.868C192.46 247.278 189.982 252.004 193.029 253.6C196.076 255.196 198.553 250.458 195.501 248.868Z" fill="white"/>
<path d="M207.359 96.707V96.7349C207.197 97.2315 198.542 120.946 197.728 121.326C196.807 121.75 216.85 155.42 218.033 171.06C218.792 181.06 217.308 237.674 217.308 237.674H187.991C187.991 237.674 189.402 186.779 190.072 170.653C190.329 164.398 169.95 133.267 169.699 113.877C169.621 107.739 174.013 96.5786 174.013 96.5786L207.359 96.707Z" fill="#263238"/>
<path d="M190.239 170.218C190.239 169.956 190.033 169.872 190.016 170.14C189.352 178.867 189.201 187.544 188.783 196.288C188.364 205.031 188.604 207.107 188.225 215.818C188.007 220.75 188.225 225.694 188.102 230.633C188.106 230.645 188.114 230.656 188.124 230.664C188.135 230.671 188.148 230.676 188.161 230.676C188.174 230.676 188.186 230.671 188.197 230.664C188.208 230.656 188.215 230.645 188.219 230.633C189.123 221.95 190.234 175.156 190.239 170.218Z" fill="#37474F"/>
<path d="M218.022 171.401C217.987 169.248 217.789 167.101 217.43 164.978C217.03 162.913 216.424 160.892 215.623 158.946C214.004 154.862 212.09 150.883 210.26 146.888C208.43 142.893 206.516 138.819 204.563 134.824C203.447 132.592 202.342 130.351 201.248 128.1C200.132 125.835 198.905 123.636 197.727 121.371C197.718 121.352 197.701 121.338 197.681 121.332C197.662 121.326 197.64 121.327 197.621 121.337C197.603 121.347 197.589 121.363 197.583 121.383C197.576 121.403 197.578 121.425 197.588 121.443C199.463 125.472 201.321 129.517 203.168 133.552C205.015 137.586 206.89 141.632 208.748 145.677C210.606 149.723 212.381 153.645 214.094 157.668C214.946 159.585 215.644 161.567 216.181 163.594C216.672 165.69 216.967 167.827 217.062 169.978C217.347 175 217.486 180.022 217.977 184.994C217.977 185.061 218.083 185.055 218.089 184.994C218.228 180.468 218.178 175.921 218.022 171.401Z" fill="#37474F"/>
<path d="M215.171 231.776C213.469 231.57 200.484 231.218 189.626 231.776C189.553 231.776 189.559 231.882 189.626 231.888C193.169 232.173 213.173 232.139 215.16 231.888C215.227 231.894 215.249 231.788 215.171 231.776Z" fill="#37474F"/>
<path d="M201.767 120.009C198.626 120.798 195.561 121.86 192.605 123.184C192.583 123.194 192.565 123.213 192.555 123.235C192.545 123.257 192.544 123.283 192.552 123.306C192.559 123.329 192.575 123.349 192.596 123.362C192.617 123.374 192.642 123.378 192.666 123.374C195.747 122.408 198.871 121.504 201.89 120.377C201.934 120.357 201.968 120.322 201.988 120.278C202.007 120.233 202.009 120.184 201.994 120.138C201.978 120.093 201.947 120.054 201.905 120.03C201.863 120.007 201.814 119.999 201.767 120.009Z" fill="#37474F"/>
<path d="M204.725 99.9211C204.725 99.8206 204.546 99.776 204.541 99.8876C204.203 103.175 203.7 106.443 203.034 109.68C202.744 111.181 200.662 119.445 198.096 118.564C197.666 118.413 197.482 117.961 197.482 117.286C197.583 116.42 197.789 115.569 198.096 114.753C198.57 113.028 198.983 111.288 199.318 109.53C199.96 106.259 200.265 102.931 200.227 99.5974C200.222 99.5782 200.211 99.5612 200.195 99.549C200.18 99.5369 200.16 99.5303 200.141 99.5303C200.121 99.5303 200.102 99.5369 200.086 99.549C200.07 99.5612 200.059 99.5782 200.054 99.5974C199.664 104.185 198.927 108.736 197.85 113.213C197.292 115.355 195.864 118.53 198.107 119.1C200.35 119.669 202.465 114.334 202.9 112.855C204.064 108.641 204.678 104.293 204.725 99.9211Z" fill="#37474F"/>
<path d="M198.141 118.798C197.848 119.339 197.591 119.898 197.371 120.472C197.153 120.912 197.021 121.389 196.98 121.878C196.98 121.973 197.103 121.99 197.159 121.934C197.476 121.532 197.73 121.085 197.912 120.606C198.169 120.093 198.431 119.579 198.676 119.055C198.71 118.984 198.715 118.902 198.689 118.828C198.662 118.754 198.608 118.693 198.537 118.659C198.466 118.625 198.384 118.62 198.31 118.646C198.236 118.673 198.175 118.727 198.141 118.798Z" fill="#37474F"/>
<path d="M193.241 178.828C193.386 174.66 193.849 170.29 192.488 166.273C191.74 164.308 190.847 162.402 189.815 160.57C188.792 158.613 187.795 156.644 186.824 154.661C182.918 146.754 179.219 138.724 175.921 130.533C174.336 126.593 172.919 122.548 172.35 118.318C171.828 113.874 172.106 109.373 173.17 105.027C173.415 103.939 173.678 102.862 173.973 101.79C173.973 101.712 173.878 101.668 173.856 101.746C172.466 105.845 171.695 110.13 171.568 114.457C171.598 118.603 172.343 122.713 173.772 126.605C175.179 130.695 176.936 134.673 178.672 138.63C180.457 142.722 182.317 146.773 184.252 150.783C186.171 154.778 188.213 158.706 190.239 162.651C191.277 164.525 192.029 166.543 192.471 168.639C192.785 170.809 192.866 173.007 192.711 175.195C192.365 184.408 191.595 215.081 191.455 224.271C191.455 225.436 191.442 226.604 191.416 227.776C191.416 227.796 191.425 227.816 191.439 227.831C191.454 227.845 191.474 227.854 191.495 227.854C191.515 227.854 191.535 227.845 191.55 227.831C191.564 227.816 191.573 227.796 191.573 227.776C192.159 218.613 192.906 188.013 193.241 178.828Z" fill="#37474F"/>
<path d="M186.668 102.672C186.668 102.605 186.562 102.616 186.556 102.672C186.21 105.205 185.998 107.839 184.787 110.138C183.671 112.253 181.707 113.609 179.57 114.563C178.327 115.098 177.057 115.567 175.765 115.969C175.67 115.997 175.692 116.142 175.792 116.12C178.22 115.618 180.681 115.054 182.79 113.692C185.022 112.236 186.205 109.904 186.573 107.292C186.763 105.759 186.795 104.211 186.668 102.672Z" fill="#37474F"/>
<path d="M196.929 64.3095C201.315 67.9644 214.981 76.2116 221.392 75.7429C225.711 75.4304 237.167 66.3295 239.41 63.1265C240.331 61.8208 231.04 52.6027 229.561 53.4285C227.932 54.3213 220.566 63.2214 219.316 63.4725C218.066 63.7236 206.41 60.7941 199.859 59.9348C195.936 59.427 194.921 62.6299 196.929 64.3095Z" fill="#F7A9A0"/>
<path d="M236.832 65.7826C239.209 64.0528 245.76 56.2966 246.698 54.4496C247.635 52.6026 249.99 47.1956 248.673 46.3307C247.356 45.4658 246.536 47.0003 246.536 47.0003C246.536 47.0003 247.261 44.3275 245.755 43.7974C244.555 43.3789 243.294 45.4714 243.294 45.4714C243.294 45.4714 243.936 42.5028 242.373 42.168C240.95 41.8667 240.169 44.4726 240.169 44.4726C240.169 44.4726 240.448 41.9337 239.025 41.9058C237.307 41.8667 236.793 46.2638 235.621 48.1944C235.348 48.6353 226.041 56.7374 226.041 56.7374L236.832 65.7826Z" fill="#F7A9A0"/>
<path d="M240.074 44.3777C239.371 47.6309 238.986 48.9589 236.983 51.4532C236.938 51.5034 236.983 51.5703 237.05 51.5257C239.237 49.2602 239.806 47.7201 240.236 44.3833C240.253 44.2271 240.108 44.2271 240.074 44.3777Z" fill="#263238"/>
<path d="M243.288 45.4826C242.607 48.8306 241.787 50.2144 239.879 52.9877C239.851 53.0267 239.918 53.0714 239.946 53.0379C242.049 50.4767 243.16 48.8919 243.4 45.4826C243.389 45.3263 243.288 45.3319 243.288 45.4826Z" fill="#263238"/>
<path d="M246.441 47.1398C245.554 50.3093 244.767 51.961 242.585 54.3938C242.577 54.3985 242.57 54.405 242.565 54.4128C242.559 54.4207 242.556 54.4296 242.555 54.439C242.553 54.4484 242.554 54.4579 242.557 54.4668C242.56 54.4758 242.566 54.4839 242.572 54.4906C242.579 54.4973 242.587 54.5023 242.596 54.5053C242.605 54.5084 242.614 54.5093 242.624 54.508C242.633 54.5068 242.642 54.5034 242.65 54.4981C242.658 54.4928 242.664 54.4858 242.669 54.4775C245.152 52.2009 246.134 50.1475 246.536 47.1622C246.564 46.9724 246.497 46.939 246.441 47.1398Z" fill="#263238"/>
<path d="M226.041 56.743C226.041 56.743 227.932 53.395 228.758 51.721C229.584 50.047 231.252 45.131 232.798 44.8297C234.539 44.4893 234.472 49.2491 233.043 52.1842C233.043 52.1842 236.949 55.8502 235.722 58.7351C235.448 59.36 232.932 61.7818 232.134 61.8264L226.041 56.743Z" fill="#F7A9A0"/>
<path d="M233.004 52.5524C234.583 53.9251 236.051 56.2576 235.727 58.3222C235.731 58.332 235.737 58.3405 235.746 58.3466C235.754 58.3526 235.764 58.3559 235.775 58.3559C235.785 58.3559 235.795 58.3526 235.804 58.3466C235.812 58.3405 235.819 58.332 235.822 58.3222C236.464 56.1571 234.795 53.4397 233.306 52.2958C233.021 52.1005 232.591 52.1953 233.004 52.5524Z" fill="#263238"/>
<path opacity="0.1" d="M242.937 42.4861L236.062 58.1548L233.83 63.2605L230.387 71.1059C226.944 73.5667 223.407 75.6034 221.403 75.7485C214.992 76.2116 201.315 67.9365 196.941 64.3095C194.932 62.6355 195.947 59.427 199.87 59.9404C206.421 60.7997 218.072 63.7348 219.328 63.4781C220.125 63.3163 223.395 59.6502 226.09 56.7821L226.051 56.7486C226.051 56.7486 227.943 53.4006 228.769 51.7266C229.595 50.0526 231.263 45.1366 232.809 44.8353C234.131 44.573 234.416 47.2738 233.841 49.8573C234.846 48.9533 235.56 48.2893 235.632 48.1833C236.826 46.2526 237.306 41.8556 239.036 41.8946C240.459 41.8946 240.152 44.4614 240.152 44.4614C240.152 44.4614 240.939 41.8556 242.384 42.1569C242.598 42.2054 242.792 42.3207 242.937 42.4861Z" fill="black"/>
<path d="M214.652 76.1335L219.116 63.1321C219.116 63.1321 206.086 59.9627 199.586 59.5218C194.134 59.148 192.639 62.9312 198.414 66.8707C203.888 70.5981 214.652 76.1335 214.652 76.1335Z" fill="#455A64"/>
<path d="M198.961 59.494L196.796 65.632C196.617 65.4646 196.444 65.3027 196.293 65.1409L198.28 59.5609C198.498 59.4995 198.721 59.494 198.961 59.494ZM202.03 59.7674L199.307 67.4678L199.865 67.8193L202.683 59.8567L202.03 59.7674ZM205.679 60.3254L202.459 69.4152L203.017 69.75L206.31 60.437L205.679 60.3254ZM209.284 60.9894L205.651 71.2678L206.209 71.5858L209.914 61.1122L209.284 60.9894ZM212.866 61.7204L208.86 73.0478L209.418 73.3547L213.485 61.8599L212.866 61.7204ZM216.432 62.5127L212.09 74.7887L212.648 75.0901L217.062 62.6522L216.432 62.5127Z" fill="#37474F"/>
<path d="M215.561 63.5004C215.194 64.2508 214.872 65.0222 214.596 65.8105C214.283 66.614 213.999 67.4231 213.709 68.2322C213.418 69.0413 212.397 72.3 212.141 73.1147C212.141 73.1538 212.196 73.1705 212.208 73.1147C212.526 72.3168 213.787 69.1362 214.066 68.3438C214.345 67.5515 214.624 66.7591 214.88 65.9556C215.171 65.153 215.412 64.333 215.6 63.5004C215.6 63.5004 215.572 63.4837 215.561 63.5004Z" fill="#263238"/>
<path opacity="0.1" d="M215.946 72.3056L214.64 76.1335C214.64 76.1335 203.877 70.5926 198.408 66.8651C193.325 63.4055 193.866 60.0687 197.766 59.5609L215.946 72.3056Z" fill="black"/>
<path d="M210.851 105.462L170.396 102.265C170.553 101.5 182.327 67.3617 192.047 60.0743C195.395 57.5688 201.187 60.0743 201.884 60.7662C208.692 67.2501 211.432 105.027 210.851 105.462Z" fill="#455A64"/>
<path d="M203.542 63.054L189.932 61.9994C190.122 61.7929 190.311 61.592 190.49 61.4023L203.14 62.3844C203.285 62.602 203.413 62.8252 203.542 63.054ZM204.898 66.1565L187.661 64.8229C187.516 65.0182 187.371 65.219 187.231 65.4255L205.132 66.8093C205.054 66.5899 204.976 66.3741 204.898 66.1621V66.1565ZM206.086 69.8783L185.379 68.2769C185.25 68.4778 185.128 68.6842 185.005 68.8907L206.265 70.5312C206.203 70.308 206.142 70.1015 206.086 69.8839V69.8783ZM207.012 73.5834L183.37 71.7532L183.035 72.367L207.157 74.214C207.113 74.0187 207.063 73.8011 207.018 73.589L207.012 73.5834ZM207.788 77.2774L181.562 75.2463C181.456 75.4528 181.35 75.6592 181.25 75.8657L207.933 77.9303C207.872 77.7127 207.827 77.495 207.788 77.283V77.2774ZM208.446 80.9602L179.832 78.7282C179.732 78.9291 179.637 79.1356 179.542 79.342L208.558 81.574C208.519 81.401 208.486 81.1834 208.446 80.9658V80.9602ZM209.004 84.6374L178.203 82.2548L177.929 82.8742L209.099 85.2847C209.083 85.0727 209.055 84.8606 209.021 84.643L209.004 84.6374ZM209.507 88.3147L176.674 85.7758C176.585 85.9822 176.495 86.1887 176.412 86.3951L209.585 88.9619C209.579 88.7499 209.551 88.5379 209.523 88.3202L209.507 88.3147ZM209.947 91.9807L175.212 89.28C175.123 89.4883 175.039 89.6948 174.961 89.8994L210.031 92.628L209.947 91.9807ZM210.327 95.6468L173.806 92.8233C173.728 93.0298 173.644 93.2362 173.566 93.4371L210.394 96.2885C210.366 96.082 210.366 95.87 210.366 95.6524L210.327 95.6468ZM210.639 99.3017L172.461 96.3498C172.383 96.5619 172.305 96.7739 172.227 96.9748L210.684 99.9489C210.69 99.7425 210.673 99.5304 210.656 99.324L210.639 99.3017ZM210.868 102.951L171.189 99.882L170.971 100.507L210.924 103.598C210.924 103.403 210.891 103.185 210.885 102.957L210.868 102.951Z" fill="#37474F"/>
<path d="M200.612 66.2792C198.414 66.681 194.859 63.1767 193.52 60.4091C193.431 60.2193 193.81 58.2942 194.167 55.9451C194.374 54.511 194.569 52.904 194.647 51.4308C194.647 51.1239 203.793 54.1483 203.793 54.1483C203.171 55.9681 202.774 57.8569 202.61 59.7729C202.604 59.9763 202.615 60.1797 202.643 60.3812C202.643 60.3812 202.643 60.4425 202.643 60.4816C202.783 61.6255 202.733 65.883 200.612 66.2792Z" fill="#F7A9A0"/>
<path d="M195.211 51.4811C195.518 53.9977 196.762 60.1078 201.7 60.4705C202.016 60.4958 202.333 60.4958 202.649 60.4705C202.652 60.437 202.652 60.4034 202.649 60.37C202.621 60.1686 202.609 59.9651 202.616 59.7618C202.775 57.8419 203.17 55.9491 203.793 54.126C203.793 54.126 197.203 51.9498 195.211 51.4811Z" fill="#263238"/>
<path d="M192.399 41.5542C191.673 44.9022 194.19 54.2376 196.695 56.1515C200.333 58.9415 205.886 58.763 208.145 54.4775C210.338 50.3316 206.84 38.2453 204.078 36.5434C200.01 34.038 193.47 36.5936 192.399 41.5542Z" fill="#F7A9A0"/>
<path d="M193.844 51.336C195.73 50.9231 196.634 48.6687 196.26 45.0027C195.886 41.3366 196.26 39.8858 197.889 39.0823C199.519 38.2788 201.751 39.5733 202.671 39.3836C203.592 39.1939 203.09 37.7096 203.849 37.5757C204.223 37.5032 205.467 38.4294 206.784 40.8456C206.784 40.8456 205.618 33.9264 198.207 35.6283C191.316 37.2409 191.662 42.966 191.952 44.64C192.42 46.9149 193.052 49.1528 193.844 51.336Z" fill="#263238"/>
<path d="M196.048 49.1821C196.048 49.1821 193.593 46.3475 192.287 47.2514C190.981 48.1554 193.046 52.4185 194.736 52.8314C194.949 52.9011 195.174 52.9273 195.397 52.9087C195.62 52.89 195.837 52.8268 196.035 52.7227C196.233 52.6186 196.409 52.4759 196.551 52.3029C196.693 52.1299 196.799 51.9301 196.862 51.7154L196.048 49.1821Z" fill="#F7A9A0"/>
<path d="M192.906 48.4623C192.906 48.4623 192.906 48.4958 192.906 48.5069C194.095 48.8473 194.803 49.8461 195.339 50.9008C195.261 50.7931 195.161 50.7037 195.045 50.6386C194.929 50.5735 194.8 50.5343 194.667 50.5237C194.535 50.5131 194.401 50.5313 194.277 50.5771C194.152 50.623 194.038 50.6953 193.944 50.7892C193.916 50.7892 193.944 50.8561 193.983 50.8505C194.176 50.7646 194.391 50.741 194.598 50.783C194.805 50.825 194.994 50.9306 195.138 51.0849C195.378 51.3461 195.59 51.6323 195.769 51.9386C195.836 52.0335 196.014 51.9386 195.964 51.8494C195.858 50.3651 194.485 48.4456 192.906 48.4623Z" fill="#263238"/>
<path d="M206.002 45.5998C206.002 45.5998 206.058 45.5998 206.064 45.6444C206.209 46.2749 206.482 46.978 207.107 47.0394V47.0729C206.393 47.1622 206.036 46.2247 206.002 45.5998Z" fill="#263238"/>
<path d="M206.388 44.7962C207.381 44.4503 207.995 46.4702 207.074 46.7771C206.154 47.084 205.556 45.0808 206.388 44.7962Z" fill="#263238"/>
<path d="M201.047 46.2024C201.334 46.2192 201.621 46.2192 201.907 46.2024C202.212 46.2398 202.521 46.173 202.783 46.0127C202.862 45.9463 202.916 45.854 202.935 45.752C202.953 45.6499 202.935 45.5446 202.883 45.4547C202.768 45.2963 202.613 45.1711 202.433 45.0918C202.254 45.0124 202.057 44.9817 201.862 45.0027C201.457 44.9881 201.061 45.121 200.746 45.3765C200.676 45.4399 200.626 45.5226 200.604 45.6143C200.581 45.7059 200.586 45.8023 200.619 45.891C200.651 45.9797 200.709 46.0567 200.785 46.1122C200.862 46.1676 200.953 46.1991 201.047 46.2024Z" fill="#263238"/>
<path d="M206.588 43.2227C206.293 43.2227 206.03 43.1613 205.729 43.1278C205.423 43.1363 205.123 43.0442 204.875 42.8656C204.805 42.7922 204.761 42.6969 204.752 42.5954C204.743 42.4939 204.769 42.3923 204.825 42.3076C204.958 42.1592 205.127 42.0488 205.317 41.988C205.506 41.9272 205.708 41.9181 205.902 41.9616C206.303 41.9812 206.682 42.1481 206.968 42.4303C207.031 42.5001 207.072 42.5872 207.086 42.6805C207.1 42.7738 207.085 42.869 207.045 42.9541C207.004 43.0391 206.939 43.1101 206.857 43.1579C206.776 43.2058 206.683 43.2283 206.588 43.2227Z" fill="#263238"/>
<path d="M200.919 47.0003C201.228 46.7953 201.592 46.6901 201.963 46.699C202.156 46.7123 202.346 46.7615 202.521 46.8441C202.713 46.9385 202.883 47.0737 203.018 47.2403L203.263 47.5472L202.895 47.5751C202.634 47.5983 202.375 47.6488 202.125 47.7257C201.865 47.8029 201.63 47.9473 201.444 48.1442C201.526 47.8425 201.725 47.5857 201.996 47.43C202.258 47.2777 202.549 47.1826 202.85 47.151L202.727 47.4914C202.52 47.2522 202.236 47.0925 201.924 47.0394C201.592 46.9824 201.254 46.9693 200.919 47.0003Z" fill="#263238"/>
<path d="M202.292 48.3395C202.548 48.2149 202.786 48.0574 203.001 47.8708C203.045 47.8206 203.229 47.6085 203.207 47.5639C203.145 47.4248 203.066 47.2937 202.973 47.1733C203.099 47.2728 203.206 47.396 203.285 47.536C203.292 47.6195 203.28 47.7035 203.25 47.7817C203.22 47.86 203.173 47.9305 203.112 47.988C202.878 48.1819 202.594 48.304 202.292 48.3395Z" fill="#263238"/>
<path d="M203.81 51.4587C204.546 50.9999 205.379 50.7191 206.243 50.6385C206.315 50.6385 206.343 50.4488 206.332 50.3762L205.902 49.0538C206.098 49.0928 207.102 49.2491 207.018 48.998C206.363 46.8561 205.492 44.7864 204.418 42.8209C204.411 42.8074 204.398 42.7971 204.384 42.7922C204.369 42.7873 204.353 42.7881 204.339 42.7944C204.325 42.8008 204.314 42.8122 204.308 42.8264C204.302 42.8406 204.301 42.8566 204.307 42.8711C204.904 44.852 205.841 46.7157 206.472 48.7022C206.112 48.6528 205.748 48.6528 205.389 48.7022C205.322 48.7413 205.891 50.0749 205.947 50.2981C205.111 50.3003 204.309 50.631 203.715 51.2188C203.503 51.4364 203.47 51.7154 203.81 51.4587Z" fill="#263238"/>
<path d="M204.971 50.4822C204.971 50.4822 205.144 51.7489 204.552 52.2065C203.961 52.664 203.129 51.9721 203.737 51.1351C204.08 50.8075 204.507 50.5815 204.971 50.4822Z" fill="#263238"/>
<path d="M204.976 51.2355C204.968 51.6024 204.815 51.9512 204.552 52.2065C204.49 52.2687 204.415 52.3168 204.333 52.3475C204.251 52.3783 204.163 52.3909 204.076 52.3846C203.989 52.3782 203.903 52.353 203.827 52.3107C203.75 52.2684 203.683 52.21 203.631 52.1395C203.628 52.1305 203.628 52.1206 203.631 52.1116C204.144 51.2746 204.635 51.1574 204.976 51.2355Z" fill="#FF99BA"/>
<path d="M226.939 50.2256L206.053 48.719L206.153 43.9592L227.084 43.3343L226.939 50.2256Z" fill="#37474F"/>
<path d="M238.612 52.4073L217.737 50.2981L217.894 42.8711L238.841 41.6491L238.612 52.4073Z" fill="#455A64"/>
<path d="M248.517 55.1192L232.697 52.3404L232.926 41.465L248.851 39.3557L248.517 55.1192Z" fill="#37474F"/>
<path d="M249.761 47.257C249.677 51.2355 249.13 54.444 248.533 54.4329C247.936 54.4217 247.523 51.1909 247.607 47.2124C247.691 43.2338 248.238 40.0253 248.835 40.0421C249.432 40.0588 249.845 43.284 249.761 47.257Z" fill="#07AEAF"/>
<path d="M191.573 68.2378C197.756 75.9103 214.719 89.068 218.809 87.7678C226.364 85.3796 230.873 64.6834 232.14 60.6937C232.698 59.0197 217.838 56.5979 217.219 58.4059C216.661 59.9794 215.109 70.9218 213.709 71.2064C213.151 71.3291 205.216 67.3004 196.093 64.4378C189.101 62.2282 189.748 65.9668 191.573 68.2378Z" fill="#F7A9A0"/>
<path d="M216.504 61.7706C216.504 61.7706 217.012 60.0966 217.007 55.8C217.007 52.452 219.317 44.5786 227.982 40.9181C231.33 39.5175 233.741 41.2362 230.549 43.3064C228.317 44.7627 226.615 45.583 226.018 46.2638C226.018 46.2638 230.097 46.6599 231.28 48.719C232.312 50.5131 233.217 52.3777 233.987 54.299C233.665 54.5205 233.329 54.7218 232.982 54.9016C233.373 55.7579 233.516 56.7068 233.393 57.6402C233.271 58.5735 232.889 59.4537 232.29 60.1803L231.291 63.7068L216.504 61.7706Z" fill="#F7A9A0"/>
<path d="M217.899 52.9319C219.015 51.5759 221.437 48.7525 224.222 47.1287C227.313 45.3263 233.752 42.6647 235.058 44.9804C236.018 46.6544 233.646 47.8876 233.646 47.8876C233.646 47.8876 236.542 47.3575 237.072 49.0649C237.558 50.6273 235.672 51.4643 235.672 51.4643C235.672 51.4643 237.48 51.4643 237.658 53.0323C237.876 54.9463 234.048 54.6728 232.586 56.8044C232.262 57.2787 217.899 52.9319 217.899 52.9319Z" fill="#F7A9A0"/>
<path d="M225.583 50.711C227.896 48.9631 230.688 47.9642 233.585 47.8485C233.657 47.8485 233.696 47.9043 233.629 47.921C230.849 48.5317 228.152 49.4779 225.6 50.7389L225.583 50.711Z" fill="#263238"/>
<path d="M227.491 53.78C228.674 52.943 232.368 51.2858 235.649 51.3974C235.722 51.3974 235.761 51.4587 235.694 51.4699C232.886 51.9371 230.139 52.7214 227.508 53.8079L227.491 53.78Z" fill="#263238"/>
<path d="M206.65 82.7346L213.385 70.7544C213.385 70.7544 201.154 65.2748 194.859 63.6566C189.57 62.2951 187.405 65.7435 192.371 70.6707C197.075 75.33 206.65 82.7346 206.65 82.7346Z" fill="#455A64"/>
<path d="M194.352 63.5395L191.166 69.3315C191.017 69.1526 190.877 68.9664 190.747 68.7735L193.688 63.4334C193.9 63.4558 194.123 63.4892 194.352 63.5395Z" fill="#37474F"/>
<path d="M197.917 64.5773L193.81 72.0434L193.331 71.597L197.304 64.3765L197.917 64.5773Z" fill="#37474F"/>
<path d="M201.377 65.8049L196.584 74.5209L196.093 74.0912L200.774 65.5817L201.377 65.8049Z" fill="#37474F"/>
<path d="M204.786 67.1274L199.407 76.9091L198.905 76.4962L204.189 66.893L204.786 67.1274Z" fill="#37474F"/>
<path d="M208.162 68.5056L202.259 79.236C202.091 79.1021 201.924 78.9681 201.756 78.8231L207.571 68.2211L208.162 68.5056Z" fill="#37474F"/>
<path d="M211.516 69.9341L205.127 81.5405L204.625 81.1444L210.924 69.6775L211.516 69.9341Z" fill="#37474F"/>
<path d="M209.847 70.481C209.351 71.152 208.892 71.8506 208.475 72.5735C208.017 73.3044 207.593 74.0466 207.163 74.8055C206.734 75.5643 205.132 78.572 204.73 79.3308C204.73 79.3643 204.775 79.3866 204.797 79.3587C205.255 78.6278 207.068 75.7317 207.487 75.0008C207.905 74.2698 208.33 73.5444 208.726 72.8022C209.158 72.0646 209.544 71.3005 209.881 70.5144C209.881 70.5144 209.858 70.4642 209.847 70.481Z" fill="#263238"/>
<path d="M194.123 72.3279C197.27 74.6715 200.585 77.495 203.609 80.0507C204.636 80.9379 205.662 81.8251 206.717 82.6677H206.6C206.845 82.3106 207.091 81.9479 207.348 81.5963C207.141 82.0148 206.924 82.4222 206.706 82.8351L206.622 82.7849C202.097 79.7717 198.035 76.0889 194.145 72.3056L194.123 72.3279Z" fill="#263238"/>
<path d="M194.441 73.1928C195.25 73.4198 195.986 73.8524 196.578 74.4483C196.153 74.4047 195.742 74.27 195.373 74.0534C195.004 73.8367 194.686 73.5432 194.441 73.1928Z" fill="#263238"/>
<path d="M209.484 197.136L204.306 206.555C203.812 207.506 203.131 208.346 202.303 209.026C201.474 209.705 200.517 210.21 199.488 210.508C198.459 210.806 197.38 210.893 196.317 210.762C195.254 210.631 194.228 210.286 193.302 209.747C191.423 208.711 190.031 206.971 189.433 204.91C188.835 202.85 189.078 200.635 190.111 198.754L198.391 183.688C198.469 183.543 198.614 183.627 198.698 183.476C198.631 183.258 198.631 183.258 198.698 183.108C199.781 181.276 201.521 179.925 203.564 179.33C205.607 178.735 207.799 178.941 209.696 179.905C218.831 184.927 230.203 181.746 235.141 172.762C240.163 163.633 236.67 152.473 227.536 147.451C224.728 145.894 221.559 145.104 218.349 145.161C215.139 145.218 212.001 146.12 209.25 147.775C208.328 148.342 207.303 148.721 206.233 148.887C205.164 149.054 204.072 149.006 203.021 148.747C201.97 148.487 200.982 148.02 200.113 147.375C199.244 146.729 198.513 145.917 197.962 144.985C197.421 144.07 197.066 143.057 196.919 142.005C196.771 140.952 196.833 139.881 197.101 138.852C197.369 137.824 197.838 136.858 198.481 136.012C199.124 135.165 199.928 134.454 200.846 133.92C206.039 130.805 211.958 129.105 218.012 128.989C224.066 128.874 230.045 130.347 235.353 133.262C252.166 142.502 258.438 163.684 249.203 180.491C245.421 187.33 239.443 192.693 232.236 195.714C225.028 198.735 217.012 199.236 209.484 197.136ZM192.041 228.864L190.613 231.47C190.12 232.421 189.438 233.263 188.61 233.944C187.782 234.625 186.824 235.13 185.794 235.43C184.765 235.729 183.685 235.816 182.621 235.686C181.557 235.556 180.53 235.211 179.603 234.672C177.724 233.633 176.334 231.892 175.735 229.83C175.137 227.767 175.38 225.552 176.412 223.669L177.846 221.063C178.903 219.204 180.643 217.83 182.696 217.233C184.75 216.636 186.955 216.863 188.844 217.865C189.785 218.368 190.617 219.054 191.289 219.883C191.962 220.711 192.462 221.666 192.76 222.691C193.058 223.716 193.148 224.79 193.024 225.85C192.901 226.91 192.567 227.935 192.041 228.864Z" fill="#07AEAF"/>
<g opacity="0.6">
<path d="M209.484 197.136L204.306 206.555C203.812 207.506 203.131 208.346 202.303 209.026C201.474 209.705 200.517 210.21 199.488 210.508C198.459 210.806 197.38 210.893 196.317 210.762C195.254 210.631 194.228 210.286 193.302 209.747C191.423 208.711 190.031 206.971 189.433 204.91C188.835 202.85 189.078 200.635 190.111 198.754L198.391 183.688C198.469 183.543 198.614 183.627 198.698 183.476C198.631 183.258 198.631 183.258 198.698 183.108C199.781 181.276 201.521 179.925 203.564 179.33C205.607 178.735 207.799 178.941 209.696 179.905C218.831 184.927 230.203 181.746 235.141 172.762C240.163 163.633 236.67 152.473 227.536 147.451C224.728 145.894 221.559 145.104 218.349 145.161C215.139 145.218 212.001 146.12 209.25 147.775C208.328 148.342 207.303 148.721 206.233 148.887C205.164 149.054 204.072 149.006 203.021 148.747C201.97 148.487 200.982 148.02 200.113 147.375C199.244 146.729 198.513 145.917 197.962 144.985C197.421 144.07 197.066 143.057 196.919 142.005C196.771 140.952 196.833 139.881 197.101 138.852C197.369 137.824 197.838 136.858 198.481 136.012C199.124 135.165 199.928 134.454 200.846 133.92C206.039 130.805 211.958 129.105 218.012 128.989C224.066 128.874 230.045 130.347 235.353 133.262C252.166 142.502 258.438 163.684 249.203 180.491C245.421 187.33 239.443 192.693 232.236 195.714C225.028 198.735 217.012 199.236 209.484 197.136ZM192.041 228.864L190.613 231.47C190.12 232.421 189.438 233.263 188.61 233.944C187.782 234.625 186.824 235.13 185.794 235.43C184.765 235.729 183.685 235.816 182.621 235.686C181.557 235.556 180.53 235.211 179.603 234.672C177.724 233.633 176.334 231.892 175.735 229.83C175.137 227.767 175.38 225.552 176.412 223.669L177.846 221.063C178.903 219.204 180.643 217.83 182.696 217.233C184.75 216.636 186.955 216.863 188.844 217.865C189.785 218.368 190.617 219.054 191.289 219.883C191.962 220.711 192.462 221.666 192.76 222.691C193.058 223.716 193.148 224.79 193.024 225.85C192.901 226.91 192.567 227.935 192.041 228.864Z" fill="white"/>
</g>
<path d="M41.0966 153.606L37.8937 143.997C37.5518 143.048 37.4061 142.04 37.4656 141.033C37.5251 140.026 37.7885 139.042 38.2399 138.139C38.6912 137.237 39.3211 136.436 40.0912 135.785C40.8614 135.133 41.7559 134.645 42.7204 134.35C44.6399 133.713 46.7336 133.863 48.5429 134.766C50.3522 135.67 51.7297 137.254 52.3738 139.171L57.4739 154.566C57.5186 154.705 57.3679 154.756 57.4181 154.906C57.619 155.001 57.619 155.001 57.6692 155.152C58.2502 157.072 58.0744 159.142 57.1779 160.937C56.2815 162.732 54.7323 164.116 52.8481 164.805C43.5574 167.891 38.5019 177.79 41.5374 186.93C44.6343 196.237 54.5891 200.969 63.8965 197.867C66.7677 196.923 69.3399 195.24 71.3547 192.987C73.3695 190.735 74.7559 187.991 75.3746 185.033C75.5737 184.033 75.9698 183.083 76.5397 182.238C77.1096 181.393 77.842 180.669 78.6942 180.11C79.5464 179.551 80.5014 179.167 81.5035 178.98C82.5057 178.793 83.5349 178.808 84.5313 179.023C85.5096 179.233 86.4365 179.635 87.2588 180.205C88.081 180.775 88.7824 181.502 89.3223 182.345C89.8623 183.187 90.2302 184.128 90.4049 185.113C90.5796 186.098 90.5575 187.108 90.3401 188.085C89.172 193.668 86.5615 198.847 82.7688 203.107C78.976 207.366 74.1334 210.558 68.7232 212.364C51.5814 218.078 32.9163 208.871 27.208 191.718C24.8941 184.729 25.0066 177.164 27.5271 170.248C30.0477 163.331 34.8289 157.467 41.0966 153.606ZM30.3105 121.242L29.4233 118.586C29.0812 117.636 28.9354 116.627 28.9948 115.619C29.0542 114.612 29.3175 113.626 29.7688 112.723C30.22 111.82 30.8498 111.018 31.6201 110.366C32.3904 109.713 33.285 109.224 34.25 108.927C36.1709 108.291 38.2658 108.442 40.0754 109.348C41.8849 110.254 43.2615 111.84 43.9034 113.759L44.7906 116.416C45.3983 118.336 45.2342 120.417 44.3332 122.218C43.4321 124.019 41.8649 125.398 39.9639 126.063C39.0145 126.393 38.0087 126.53 37.0056 126.466C36.0025 126.402 35.0224 126.137 34.1229 125.689C33.2235 125.24 32.4229 124.616 31.7681 123.853C31.1134 123.091 30.6178 122.205 30.3105 121.248V121.242Z" fill="#07AEAF"/>
<g opacity="0.6">
<path d="M41.0966 153.606L37.8937 143.997C37.5518 143.048 37.4061 142.04 37.4656 141.033C37.5251 140.026 37.7885 139.042 38.2399 138.139C38.6912 137.237 39.3211 136.436 40.0912 135.785C40.8614 135.133 41.7559 134.645 42.7204 134.35C44.6399 133.713 46.7336 133.863 48.5429 134.766C50.3522 135.67 51.7297 137.254 52.3738 139.171L57.4739 154.566C57.5186 154.705 57.3679 154.756 57.4181 154.906C57.619 155.001 57.619 155.001 57.6692 155.152C58.2502 157.072 58.0744 159.142 57.1779 160.937C56.2815 162.732 54.7323 164.116 52.8481 164.805C43.5574 167.891 38.5019 177.79 41.5374 186.93C44.6343 196.237 54.5891 200.969 63.8965 197.867C66.7677 196.923 69.3399 195.24 71.3547 192.987C73.3695 190.735 74.7559 187.991 75.3746 185.033C75.5737 184.033 75.9698 183.083 76.5397 182.238C77.1096 181.393 77.842 180.669 78.6942 180.11C79.5464 179.551 80.5014 179.167 81.5035 178.98C82.5057 178.793 83.5349 178.808 84.5313 179.023C85.5096 179.233 86.4365 179.635 87.2588 180.205C88.081 180.775 88.7824 181.502 89.3223 182.345C89.8623 183.187 90.2302 184.128 90.4049 185.113C90.5796 186.098 90.5575 187.108 90.3401 188.085C89.172 193.668 86.5615 198.847 82.7688 203.107C78.976 207.366 74.1334 210.558 68.7232 212.364C51.5814 218.078 32.9163 208.871 27.208 191.718C24.8941 184.729 25.0066 177.164 27.5271 170.248C30.0477 163.331 34.8289 157.467 41.0966 153.606ZM30.3105 121.242L29.4233 118.586C29.0812 117.636 28.9354 116.627 28.9948 115.619C29.0542 114.612 29.3175 113.626 29.7688 112.723C30.22 111.82 30.8498 111.018 31.6201 110.366C32.3904 109.713 33.285 109.224 34.25 108.927C36.1709 108.291 38.2658 108.442 40.0754 109.348C41.8849 110.254 43.2615 111.84 43.9034 113.759L44.7906 116.416C45.3983 118.336 45.2342 120.417 44.3332 122.218C43.4321 124.019 41.8649 125.398 39.9639 126.063C39.0145 126.393 38.0087 126.53 37.0056 126.466C36.0025 126.402 35.0224 126.137 34.1229 125.689C33.2235 125.24 32.4229 124.616 31.7681 123.853C31.1134 123.091 30.6178 122.205 30.3105 121.248V121.242Z" fill="white"/>
</g>
<path d="M151.464 159.387V180.161C151.464 189.089 144.768 195.785 135.806 195.785C131.661 195.778 127.687 194.131 124.753 191.204C121.818 188.276 120.161 184.307 120.143 180.161V146.927C120.143 146.615 120.483 146.615 120.483 146.291C120.143 145.978 120.143 145.978 120.143 145.655C120.143 137.341 127.509 129.992 135.806 129.992C155.939 129.992 172.227 114.022 172.227 94.2127C172.227 74.0857 155.939 58.4282 135.806 58.4282C129.598 58.406 123.494 60.018 118.107 63.1025C112.72 66.1869 108.239 70.6349 105.116 75.9996C104.08 77.8169 102.693 79.4097 101.035 80.685C99.3771 81.9604 97.4818 82.8928 95.4596 83.4278C93.4375 83.9628 91.3291 84.0897 89.2573 83.8012C87.1856 83.5126 85.1921 82.8143 83.3932 81.747C81.6276 80.7029 80.0858 79.3202 78.8563 77.6784C77.6268 76.0365 76.7338 74.1679 76.2288 72.1798C75.7238 70.1918 75.6166 68.1236 75.9133 66.094C76.2101 64.0644 76.9051 62.1135 77.9582 60.3533C83.8585 50.2443 92.3035 41.8569 102.453 36.026C112.602 30.1952 124.101 27.1242 135.806 27.1188C172.874 27.1188 203.235 57.1504 203.235 94.2127C203.235 125.846 181.171 152.367 151.464 159.387ZM151.464 229.355V235.102C151.464 244.03 144.768 250.765 135.806 250.765C131.655 250.756 127.676 249.103 124.74 246.168C121.805 243.232 120.152 239.254 120.143 235.102V229.338C120.143 220.717 127.509 213.714 135.806 213.714C137.866 213.689 139.911 214.076 141.819 214.853C143.728 215.629 145.462 216.778 146.921 218.233C148.379 219.689 149.532 221.42 150.312 223.327C151.092 225.234 151.484 227.278 151.464 229.338V229.355Z" fill="#07AEAF"/>
<path opacity="0.6" d="M141.732 33.9933C168.549 30.6174 192.728 57.9539 197.091 82.5896C197.579 85.3834 197.837 88.2127 197.861 91.0488C197.828 91.9919 197.805 92.9293 197.744 93.8388C191.238 67.4064 169.905 38.7363 141.732 33.9933Z" fill="white"/>
<path d="M104.519 92.9516C104.528 93.2326 104.465 93.5112 104.335 93.7604C104.205 94.0097 104.013 94.2212 103.777 94.3745C103.394 94.6367 102.993 94.8716 102.577 95.0776C102.695 93.4817 102.628 91.8245 102.577 90.2453C102.538 88.3872 102.388 86.5681 102.198 84.7323H102.159C102.231 86.596 102.243 88.4653 102.27 90.3123C102.27 91.9417 102.198 93.5877 102.231 95.2227C101.807 95.418 101.372 95.591 100.937 95.7472C100.967 95.178 100.989 94.6089 101.004 94.0397C101.06 92.3267 101.004 90.6303 100.954 88.9229C100.954 88.8782 100.903 88.8782 100.903 88.9229C100.903 90.5969 100.781 92.2709 100.714 93.9449C100.686 94.5866 100.652 95.2283 100.619 95.87C100.317 95.9704 100.016 96.0597 99.7204 96.1434C99.5251 96.2048 99.3298 96.255 99.1289 96.3052C99.1289 95.1892 99.1289 94.0732 99.1289 92.9572C99.1289 91.1772 99.0229 89.4027 98.995 87.6227C98.995 87.6176 98.994 87.6125 98.992 87.6078C98.99 87.603 98.9872 87.5987 98.9835 87.5951C98.9799 87.5915 98.9756 87.5886 98.9709 87.5866C98.9661 87.5847 98.961 87.5837 98.9559 87.5837C98.9508 87.5837 98.9457 87.5847 98.941 87.5866C98.9362 87.5886 98.9319 87.5915 98.9283 87.5951C98.9247 87.5987 98.9218 87.603 98.9198 87.6078C98.9179 87.6125 98.9168 87.6176 98.9168 87.6227C98.9168 89.3916 98.8499 91.1716 98.8276 92.9461C98.8276 94.09 98.7606 95.2562 98.755 96.4112C96.1186 96.9861 93.396 97.0467 90.7366 96.5898C89.192 96.3284 87.6684 95.9554 86.1777 95.4738C85.815 95.3566 84.8943 95.0385 83.9848 94.7037C83.9848 94.1457 83.9848 93.6268 83.9848 93.1079C84.0182 91.9249 83.9848 90.7252 84.0461 89.5478C84.0461 89.5088 84.0071 89.5088 84.0071 89.5478C83.9122 90.7364 83.756 91.9137 83.689 93.1023C83.689 93.5822 83.6332 94.0732 83.6109 94.5754L82.6958 94.2239C82.8799 91.9919 82.8297 89.7096 82.8911 87.4832C82.8911 87.4274 82.8297 87.4274 82.8241 87.4832C82.6735 89.6706 82.4 91.8858 82.3498 94.0899C82.1412 94.0143 81.9411 93.9171 81.7528 93.7998C81.3119 93.3757 81.9146 84.537 82.0094 82.478C82.1936 78.6278 83.1868 70.8325 84.1354 67.1274C84.9501 63.9524 86.6297 59.4158 94.531 59.5553C100.329 59.6558 103.029 65.6933 103.504 69.231C103.788 71.0501 104.536 91.9416 104.519 92.9516Z" fill="#263238"/>
<path d="M87.6059 90.5522C85.4465 103.66 84.7378 117.191 86.1886 119.797C88.4206 123.843 104.859 133.63 110.506 135.678C112.353 136.347 117.889 124.155 116.784 122.364C115.679 120.573 97.6499 111.416 96.7794 110.484C96.3219 109.971 94.6591 98.8664 93.0855 91.2832C91.618 84.2133 88.2644 86.5737 87.6059 90.5522Z" fill="#D3766A"/>
<path d="M104.151 133.362L111.354 118.039C111.354 118.039 98.766 110.813 97.3152 109.803C96.6958 109.374 94.5698 95.6356 93.359 89.6538C92.5555 85.7478 89.1238 83.4712 87.0201 90.9317C85.7925 95.3064 83.0137 116.767 85.5302 120.623C87.5335 123.686 104.151 133.362 104.151 133.362Z" fill="#07AEAF"/>
<path d="M100.686 130.321C101.032 129.143 103.225 124.59 103.788 123.463C104.352 122.336 106.74 117.883 107.32 116.728C107.354 116.667 107.454 116.695 107.421 116.756C106.863 117.911 104.815 122.554 104.268 123.686C103.721 124.819 101.478 129.339 100.747 130.349C100.745 130.353 100.743 130.356 100.739 130.359C100.736 130.362 100.732 130.365 100.728 130.366C100.724 130.368 100.72 130.369 100.715 130.369C100.711 130.368 100.706 130.367 100.702 130.366C100.698 130.364 100.695 130.361 100.692 130.358C100.689 130.355 100.686 130.351 100.685 130.347C100.683 130.343 100.682 130.338 100.683 130.334C100.683 130.329 100.684 130.325 100.686 130.321Z" fill="#263238"/>
<path opacity="0.1" d="M87.4107 89.7152C87.3494 89.8938 87.2824 90.0835 87.221 90.2732C87.1596 90.463 87.0871 90.7029 87.0257 90.9205C86.8137 91.6738 86.5514 92.9293 86.2836 94.514C86.2334 94.8042 86.1831 95.072 86.1385 95.4124C86.105 95.5966 86.0771 95.7919 86.0492 95.9704C85.9823 96.3833 85.9209 96.8074 85.8595 97.2427L85.826 97.477C85.7591 97.9513 85.6865 98.4479 85.6251 98.9501C85.5749 99.3184 85.5247 99.6867 85.4801 100.066C85.4354 100.446 85.3852 100.814 85.3461 101.182C85.3461 101.372 85.3015 101.562 85.2792 101.74C85.0392 103.872 84.8328 106.115 84.6933 108.285C84.6542 108.871 84.6207 109.457 84.5984 110.038C84.5984 110.423 84.5649 110.808 84.5538 111.154C84.5426 111.5 84.5259 111.901 84.5203 112.27C84.4478 116.097 84.71 119.256 85.5303 120.522C86.8806 122.598 94.9382 127.698 99.9992 130.773L91.6683 86.3561C91.6003 86.3022 91.5295 86.2519 91.4562 86.2054C91.2398 86.0599 90.9925 85.967 90.7338 85.9341C90.4751 85.9012 90.2123 85.9291 89.9664 86.0157C89.7291 86.1049 89.5084 86.2331 89.3135 86.3951C89.1594 86.527 89.0157 86.6706 88.8839 86.8248C88.7268 86.9997 88.5831 87.1862 88.4542 87.3828C88.0129 88.115 87.6625 88.8983 87.4107 89.7152Z" fill="#020100"/>
<path d="M140.058 260.96C138.624 261.429 97.6502 261.066 96.0711 260.067C95.4796 259.688 95.1839 253.717 95.0332 246.485C94.9997 244.929 91.9028 219.768 91.9028 219.768L119.312 219.93L121.488 246.636C121.488 246.636 137.112 253.795 138.708 255.079C140.304 256.362 141.52 260.497 140.058 260.96Z" fill="#D3766A"/>
<path d="M140.058 260.96C138.624 261.429 97.6503 261.066 96.0712 260.067C95.6248 259.777 95.3458 256.284 95.1616 251.452C100.468 252.668 130.277 255.118 133.703 254.705C137.012 254.308 129.339 250.363 127.955 249.683C132.453 251.809 137.793 254.381 138.691 255.106C140.287 256.362 141.52 260.497 140.058 260.96Z" fill="#263238"/>
<path d="M63.3777 108.877C63.3777 108.877 56.2074 119.284 60.1524 130.572C66.8819 149.884 83.979 171.613 84.5035 174.096C85.7423 179.955 92.3155 240.001 92.3155 240.001L122.944 239.817C122.944 239.817 117.922 188.883 112.705 172.065C109.865 162.88 93.6491 137.703 86.6518 125.416C86.0213 124.3 87.5 119.574 87.5 119.574L63.3777 108.877Z" fill="#37474F"/>
<path d="M119.898 234.455C115.144 234.36 100.747 233.964 94.4083 234.455C94.3581 234.455 94.3581 234.539 94.4083 234.544C96.5845 234.885 115.144 234.656 119.898 234.544C119.907 234.554 119.919 234.561 119.932 234.565C119.945 234.568 119.959 234.567 119.972 234.562C119.984 234.557 119.995 234.549 120.003 234.537C120.01 234.526 120.015 234.513 120.015 234.5C120.015 234.486 120.01 234.473 120.003 234.462C119.995 234.45 119.984 234.442 119.972 234.437C119.959 234.432 119.945 234.431 119.932 234.434C119.919 234.438 119.907 234.445 119.898 234.455Z" fill="#263238"/>
<path d="M58.272 123.084C60.3143 126.381 62.4794 129.612 64.5719 132.877C66.6644 136.141 68.7457 139.422 70.8047 142.714C74.9153 149.298 78.9292 155.937 82.8464 162.629C84.7479 165.716 86.3689 168.967 87.6898 172.344C88.8937 175.73 89.7865 179.219 90.357 182.767C90.9597 186.333 91.3447 189.926 91.7018 193.52C92.0738 197.344 92.4458 201.168 92.8178 204.992L95.1447 228.473C95.2395 229.433 95.3344 230.393 95.4181 231.352C95.4181 231.497 95.1782 231.52 95.1614 231.38C94.2854 223.602 93.5711 215.801 92.7843 208.011C92.39 204.135 91.9957 200.259 91.6014 196.383C91.2387 192.778 90.8927 189.168 90.3794 185.58C89.9048 182.044 89.168 178.549 88.1753 175.123C87.0688 171.573 85.5716 168.158 83.7113 164.939C79.9559 158.271 75.9718 151.715 71.9933 145.175C68.0147 138.635 63.9246 132.006 59.7173 125.522C59.1983 124.724 58.6738 123.926 58.1325 123.139C58.127 123.078 58.233 123.022 58.272 123.084Z" fill="#263238"/>
<path d="M65.4255 261.144C63.9134 261.032 25.1268 244.761 24.061 243.249C24.0147 243.16 23.9953 243.059 24.0052 242.959C24.0052 241.62 42.5755 207.95 42.5755 207.95L67.931 218.39L53.5681 240.905C53.5681 240.905 65.3753 253.416 66.363 255.196C67.3507 256.976 66.9266 261.267 65.4255 261.144Z" fill="#D3766A"/>
<path d="M66.3519 255.196C67.3339 256.976 66.9099 261.267 65.4256 261.161C63.9413 261.055 25.1101 244.772 24.0555 243.288C24.013 243.198 23.9957 243.097 24.0052 242.998C24.0052 242.557 25.9973 238.673 28.6701 233.64C34.1664 223.261 42.5755 207.972 42.5755 207.972L67.931 218.412L53.5681 240.905C53.5681 240.905 56.8268 244.359 60.0576 247.891C62.9871 251.1 65.8831 254.348 66.3519 255.196Z" fill="#D3766A"/>
<path d="M65.4256 261.144C63.919 261.032 25.1268 244.756 24.0555 243.249C24.013 243.158 23.9957 243.058 24.0052 242.959C24.0052 242.518 25.9973 238.634 28.6701 233.601C35.3661 240.643 61.7874 253.483 62.6523 253.131C63.5172 252.78 60.2808 248.215 60.0576 247.892C62.9871 251.089 65.8831 254.336 66.3519 255.185C67.3339 256.976 66.9601 261.267 65.4256 261.144Z" fill="#263238"/>
<path d="M57.2956 237.384L30.9971 224.919C30.9971 224.919 64.9179 173.956 65.2304 170.09C65.5038 166.663 50.3374 136.643 49.8296 127.938C49.2716 118.547 53.8918 111.343 58.9138 106.896L87.5169 119.591C87.5169 119.591 85.017 124.696 80.0899 127.403C80.0899 127.403 94.7541 162.071 93.7665 172.662C92.7788 183.253 57.2956 237.384 57.2956 237.384Z" fill="#37474F"/>
<path d="M58.7575 231.352C55.1081 229.489 56.1851 229.963 52.5134 228.144C50.7223 227.257 38.915 221.42 37.0792 220.89C37.0401 220.89 37.0066 220.951 37.0401 220.974C38.5802 222.09 50.4935 227.703 52.307 228.557C56.0121 230.292 54.9686 229.751 58.7017 231.447C58.7686 231.497 58.8244 231.386 58.7575 231.352Z" fill="#263238"/>
<path d="M84.3528 127.682C81.2144 127.907 78.1008 128.398 75.0454 129.149C75.033 129.151 75.021 129.156 75.0104 129.163C74.9997 129.17 74.9905 129.178 74.9832 129.189C74.976 129.199 74.9708 129.211 74.9681 129.223C74.9654 129.235 74.9651 129.248 74.9673 129.261C74.9695 129.273 74.9741 129.285 74.9809 129.296C74.9877 129.306 74.9965 129.316 75.0069 129.323C75.0173 129.33 75.029 129.335 75.0413 129.338C75.0537 129.341 75.0664 129.341 75.0789 129.339C78.1869 128.943 81.3341 128.608 84.4142 128.044C84.4604 128.034 84.501 128.007 84.5275 127.967C84.5539 127.928 84.5643 127.88 84.5564 127.834C84.5485 127.787 84.523 127.745 84.4851 127.717C84.4472 127.689 84.3998 127.676 84.3528 127.682Z" fill="#263238"/>
<path d="M81.0943 125.941C80.7305 126.397 80.3986 126.878 80.101 127.38C79.8262 127.753 79.6272 128.175 79.5151 128.625C79.5151 128.714 79.6156 128.753 79.677 128.708C80.0415 128.386 80.354 128.01 80.6032 127.592C80.9213 127.151 81.2561 126.716 81.5686 126.27C81.775 125.968 81.3175 125.662 81.0943 125.941Z" fill="#263238"/>
<path d="M87.2602 117.654C87.2602 117.604 87.1765 117.559 87.1542 117.61C86.5737 119.166 85.9011 120.686 85.1398 122.163C84.7939 122.855 82.6233 126.571 81.2338 125.756C80.9995 125.623 80.9493 125.371 81.0274 125.048C81.1879 124.635 81.4078 124.248 81.6802 123.898C82.1545 123.128 82.6009 122.341 82.9971 121.538C83.7447 120.042 84.3068 118.461 84.6711 116.828C84.6711 116.778 84.593 116.75 84.5707 116.801C83.8056 118.986 82.8457 121.098 81.7026 123.112C81.1446 124.071 79.9281 125.405 81.1446 126.019C82.361 126.632 84.2247 124.345 84.6544 123.686C85.8284 121.822 86.7073 119.787 87.2602 117.654Z" fill="#263238"/>
<path d="M80.5361 128.53C81.5517 130.762 82.4445 132.994 83.3987 135.198C84.3529 137.402 85.1954 139.567 86.0324 141.771C87.7064 146.235 89.2521 150.76 90.5746 155.342C91.2293 157.607 91.8282 159.889 92.3713 162.188C92.9618 164.485 93.387 166.822 93.6436 169.18C93.8674 171.53 93.6382 173.902 92.9684 176.166C92.2709 178.482 88.3537 186.21 87.2823 188.375C86.6239 189.698 86.4063 189.491 86.7243 188.849C87.6283 186.958 93.0074 175.502 92.9014 170.659C92.7902 168.325 92.4538 166.008 91.897 163.739C91.3892 161.413 90.8089 159.108 90.1728 156.815C88.9229 152.295 87.4218 147.887 85.8818 143.423C85.0169 140.945 84.085 138.49 83.2089 136.012C82.3329 133.535 81.4066 131.275 80.4189 128.552C80.4196 128.538 80.4249 128.525 80.434 128.515C80.443 128.504 80.4552 128.497 80.4688 128.495C80.4823 128.492 80.4963 128.494 80.5085 128.501C80.5207 128.507 80.5304 128.517 80.5361 128.53Z" fill="#263238"/>
<path d="M58.9696 120.941C59.483 120.757 60.1916 121.08 60.7106 121.175C61.3766 121.293 62.0494 121.37 62.7249 121.404C63.3948 121.431 64.0657 121.416 64.7337 121.359C65.404 121.346 66.0624 121.18 66.6588 120.874C67.6366 120.179 68.4767 119.309 69.1364 118.307C69.9304 117.281 70.5869 116.155 71.0894 114.959C71.0894 114.887 71.2177 114.959 71.1954 115.009C70.9722 115.69 70.8048 116.376 70.5202 117.046C70.2481 117.669 69.9272 118.27 69.5604 118.843C68.8853 119.914 68.1208 121.075 66.9825 121.694C65.8442 122.314 64.265 122.291 62.9481 122.202C62.1859 122.149 61.4286 122.039 60.6827 121.873C60.1247 121.75 59.2319 121.655 58.8971 121.175C58.8856 121.155 58.8783 121.133 58.8758 121.11C58.8732 121.087 58.8754 121.064 58.8822 121.042C58.889 121.02 58.9003 121 58.9154 120.982C58.9304 120.965 58.9489 120.951 58.9696 120.941Z" fill="#263238"/>
<path d="M38.8593 220.181C43.6358 213.147 48.3267 206.053 52.9321 198.899C57.5374 191.746 62.0795 184.531 66.5584 177.254C67.6298 175.513 68.863 173.784 69.5605 171.853C70.3249 169.755 69.9343 167.712 69.2926 165.642C68.0898 161.858 66.6739 158.145 65.0518 154.521C63.4504 150.872 61.7038 147.267 60.0298 143.685C58.3558 140.103 56.5479 136.531 55.2868 132.787C54.076 129.21 53.6463 125.505 54.6507 121.823C55.6551 118.14 57.7532 114.903 59.9461 111.857L61.6927 109.452C61.7373 109.39 61.8266 109.452 61.7819 109.53C59.3714 112.705 57.0166 116.064 55.577 119.808C54.8429 121.654 54.4205 123.61 54.3271 125.595C54.2919 127.608 54.5802 129.615 55.1808 131.537C56.2968 135.282 58.0657 138.836 59.7229 142.363C61.3802 145.889 63.149 149.55 64.7784 153.182C66.4456 156.822 67.9207 160.547 69.1978 164.342C69.7558 166.016 70.3696 167.807 70.3138 169.621C70.2468 171.602 69.2759 173.371 68.2771 175.033C63.9191 182.254 59.4049 189.38 54.8348 196.466C50.2648 203.553 45.572 210.639 40.8235 217.67L39.0211 220.321C38.943 220.41 38.7868 220.293 38.8593 220.181Z" fill="#263238"/>
<path d="M87.5169 119.591L89.9275 107.426C89.9275 107.426 94.1906 105.92 94.1404 100.39C94.1125 97.8453 92.9128 87.8962 90.0391 83.9678C87.3495 80.2795 83.025 81.1778 80.4247 82.4612C75.3302 84.9667 68.0929 92.0086 58.9138 106.896L87.5169 119.591Z" fill="#07AEAF"/>
<path d="M82.9637 103.263C84.1484 103.726 85.2832 104.308 86.3508 104.999C86.8809 105.362 87.3942 105.752 87.902 106.165C88.1531 106.372 88.4154 106.567 88.672 106.757C88.9326 106.962 89.2246 107.124 89.537 107.236C89.537 107.236 89.537 107.303 89.537 107.298C89.2367 107.241 88.9418 107.159 88.6553 107.052C88.3778 106.931 88.1125 106.783 87.8629 106.611C87.3049 106.254 86.7916 105.858 86.2503 105.495C85.1622 104.759 84.0741 104.022 82.9302 103.403C82.8633 103.375 82.9135 103.23 82.9637 103.263Z" fill="#263238"/>
<path d="M79.6101 104.05C80.6392 104.152 81.6582 104.339 82.6568 104.608C83.1539 104.745 83.6422 104.913 84.1187 105.11C84.3531 105.2 84.5819 105.3 84.8051 105.401C85.0283 105.501 85.2905 105.674 85.5416 105.78C85.5416 105.78 85.5416 105.853 85.5416 105.841C85.3017 105.752 85.0394 105.719 84.7939 105.652L84.0573 105.434C83.5607 105.295 83.0641 105.161 82.5675 105.01C81.5798 104.714 80.5922 104.452 79.5933 104.184C79.5264 104.156 79.5543 104.045 79.6101 104.05Z" fill="#263238"/>
<path d="M76.8031 85.6809C69.2813 93.5877 58.4393 107.794 59.2149 111.17C61.1679 119.618 68.4164 129.852 72.0489 133.557C74.1805 135.717 86.1384 125.031 84.3249 123.017C81.4847 119.836 74.5209 109.625 73.7229 108.313C73.2877 107.599 78.678 96.7293 81.1611 89.4864C83.8953 81.613 80.4692 81.8307 76.8031 85.6809Z" fill="#D3766A"/>
<path d="M88.7222 132.129C88.4153 131.13 88.9398 130.963 90.4631 132.028C91.9865 133.094 97.1256 138.585 98.8889 136.632C100.652 134.679 93.3089 127.029 90.6249 125.472C87.941 123.915 83.0752 122.291 83.0752 122.291C84.1912 124.049 86.5292 128.619 88.7222 132.129Z" fill="#D3766A"/>
<path d="M84.7667 139.761L88.2861 143.499L115.967 117.432L112.447 113.695L84.7667 139.761Z" fill="#C7C7C7"/>
<path d="M74.0801 148.021L79.4034 153.673L94.6368 139.327L89.3135 133.674L74.0801 148.021Z" fill="#263238"/>
<path d="M101.45 129.367C101.791 127.358 103.961 128.909 103.961 128.909C103.961 128.909 101.372 125.924 102.527 123.988C103.682 122.051 106.199 124.088 106.383 124.228C106.249 124.066 103.939 121.265 105.267 119.434C106.595 117.604 108.911 119.953 109.056 120.109C108.972 119.92 107.94 117.386 109.29 116.231C111.606 114.25 115.149 121.253 117.481 122.051L121.309 119.512C120.726 120.54 120.455 121.715 120.528 122.894C120.578 124.568 120.623 125.734 120.165 126.699C119.975 127.141 119.648 127.509 119.232 127.749C118.815 127.99 118.333 128.089 117.855 128.033C117.855 128.033 118.971 129.88 117.95 131.381C117.392 132.134 115.718 131.939 115.718 131.939C115.718 131.939 116.55 133.457 115.562 134.729C114.77 135.733 113.213 135.404 113.213 135.404C113.213 135.404 113.336 137.235 112.197 137.993C109.965 139.5 100.725 133.669 101.45 129.367Z" fill="#D3766A"/>
<path d="M118.48 121.605L121.27 119.574L121.644 119.412C125.773 117.866 130.639 120.746 128.122 122.665C126.208 124.121 122.364 122.726 120.623 124.507L118.48 121.605Z" fill="#AD6359"/>
<path d="M113.017 135.36C113.045 135.36 113.017 135.427 113.017 135.415C109.368 134.203 106.174 131.908 103.861 128.837C103.788 128.736 103.922 128.58 104.017 128.669C106.675 131.326 109.707 133.58 113.017 135.36Z" fill="#263238"/>
<path d="M115.807 131.978C115.846 131.978 115.807 132.062 115.774 132.051C112.164 130.812 108.308 128.033 106.226 124.239C106.154 124.11 106.226 123.921 106.316 124.066C107.889 126.487 112.671 130.354 115.807 131.978Z" fill="#263238"/>
<path d="M109.028 119.797C111.159 123.351 114.217 125.862 117.733 127.988C117.777 127.988 117.733 128.078 117.688 128.067C115.685 127.509 113.592 125.902 112.063 124.529C110.622 123.278 109.533 121.672 108.905 119.87C108.877 119.797 108.983 119.719 109.028 119.797Z" fill="#263238"/>
<g opacity="0.4">
<path d="M108.732 89.4753C109.839 83.0781 113.13 77.2627 118.044 73.0203C122.958 68.7779 129.192 66.3712 135.682 66.2103C142.172 66.0494 148.518 68.1443 153.636 72.138C158.755 76.1317 162.33 81.7769 163.752 88.1114C165.174 94.4459 164.356 101.078 161.436 106.876C158.516 112.675 153.676 117.281 147.74 119.91C141.804 122.54 135.14 123.029 128.883 121.295C122.627 119.561 117.166 115.71 113.43 110.4C109.156 104.322 107.466 96.7972 108.732 89.4753Z" fill="white"/>
</g>
<path d="M104.073 88.6662C105.184 82.2829 108.163 76.3724 112.634 71.6823C117.104 66.9922 122.865 63.7331 129.188 62.317C135.511 60.901 142.111 61.3916 148.155 63.727C154.199 66.0623 159.415 70.1374 163.142 75.4369C166.87 80.7364 168.943 87.0224 169.098 93.4999C169.254 99.9774 167.485 106.355 164.015 111.828C160.546 117.3 155.531 121.62 149.606 124.242C143.681 126.865 137.112 127.671 130.728 126.56C122.174 125.06 114.563 120.228 109.566 113.124C104.569 106.02 102.593 97.2246 104.073 88.6662ZM107.772 89.3079C106.785 94.9621 107.497 100.782 109.819 106.032C112.14 111.281 115.966 115.724 120.812 118.799C125.659 121.874 131.309 123.442 137.047 123.305C142.785 123.169 148.354 121.333 153.048 118.031C157.743 114.729 161.353 110.109 163.422 104.755C165.491 99.4013 165.925 93.5541 164.67 87.9532C163.415 82.3524 160.527 77.2496 156.372 73.2902C152.216 69.3309 146.98 66.693 141.325 65.7101C133.747 64.3929 125.955 66.1386 119.664 70.5636C113.372 74.9886 109.095 81.7306 107.772 89.3079Z" fill="#37474F"/>
<path d="M144.154 123.24C147.535 122.311 150.728 120.801 153.59 118.776C159.66 114.461 163.894 108.028 165.456 100.746C167.019 93.4646 165.798 85.8614 162.034 79.4352C158.269 73.0091 152.234 68.2261 145.118 66.0288C138.001 63.8315 130.32 64.3794 123.588 67.5644C116.856 70.7494 111.56 76.3406 108.746 83.236C105.931 90.1314 105.802 97.831 108.382 104.817C110.963 111.804 116.067 117.57 122.688 120.98C129.309 124.39 136.968 125.196 144.154 123.24ZM131.537 121.901C125.138 120.799 119.319 117.513 115.072 112.601C110.824 107.69 108.412 101.457 108.245 94.9662C108.078 88.4751 110.168 82.127 114.157 77.004C118.147 71.8809 123.79 68.2999 130.124 66.8713C136.458 65.4427 143.091 66.2549 148.894 69.1695C154.696 72.0842 159.308 76.9208 161.944 82.855C164.579 88.7893 165.076 95.4539 163.348 101.713C161.62 107.972 157.775 113.438 152.468 117.18C146.392 121.464 138.864 123.162 131.537 121.901ZM144.154 123.24C147.535 122.311 150.728 120.801 153.59 118.776C159.66 114.461 163.894 108.028 165.456 100.746C167.019 93.4646 165.798 85.8614 162.034 79.4352C158.269 73.0091 152.234 68.2261 145.118 66.0288C138.001 63.8315 130.32 64.3794 123.588 67.5644C116.856 70.7494 111.56 76.3406 108.746 83.236C105.931 90.1314 105.802 97.831 108.382 104.817C110.963 111.804 116.067 117.57 122.688 120.98C129.309 124.39 136.968 125.196 144.154 123.24ZM131.537 121.901C125.138 120.799 119.319 117.513 115.072 112.601C110.824 107.69 108.412 101.457 108.245 94.9662C108.078 88.4751 110.168 82.127 114.157 77.004C118.147 71.8809 123.79 68.2999 130.124 66.8713C136.458 65.4427 143.091 66.2549 148.894 69.1695C154.696 72.0842 159.308 76.9208 161.944 82.855C164.579 88.7893 165.076 95.4539 163.348 101.713C161.62 107.972 157.775 113.438 152.468 117.18C146.392 121.464 138.864 123.162 131.537 121.901ZM145.13 126.867C153.158 124.71 160.107 119.664 164.644 112.699C169.181 105.733 170.987 97.3373 169.715 89.1223C168.442 80.9072 164.182 73.4512 157.75 68.1844C151.318 62.9175 143.169 60.2107 134.864 60.5831C126.559 60.9555 118.685 64.381 112.75 70.2024C106.816 76.0238 103.24 83.8312 102.708 92.1272C102.176 100.423 104.726 108.623 109.868 115.155C115.01 121.687 122.383 126.09 130.572 127.52C135.414 128.365 140.383 128.142 145.13 126.867ZM130.896 125.6C123.176 124.249 116.227 120.094 111.381 113.934C106.536 107.774 104.136 100.041 104.641 92.2202C105.146 84.3991 108.522 77.0399 114.119 71.5543C119.717 66.0688 127.143 62.843 134.973 62.496C142.802 62.1489 150.484 64.7049 156.545 69.6737C162.607 74.6425 166.62 81.6742 167.815 89.4199C169.01 97.1656 167.304 105.08 163.022 111.645C158.741 118.21 152.187 122.963 144.617 124.992C140.143 126.198 135.459 126.406 130.896 125.6ZM153.59 118.798C159.66 114.483 163.894 108.051 165.456 100.769C167.019 93.4869 165.798 85.8837 162.034 79.4575C158.269 73.0314 152.234 68.2484 145.118 66.0511C138.001 63.8538 130.32 64.4017 123.588 67.5867C116.856 70.7717 111.56 76.3629 108.746 83.2583C105.931 90.1537 105.802 97.8533 108.382 104.84C110.963 111.826 116.067 117.592 122.688 121.002C129.309 124.412 136.968 125.218 144.154 123.262C147.535 122.334 150.728 120.823 153.59 118.798ZM131.537 121.901C125.138 120.799 119.319 117.513 115.072 112.601C110.824 107.69 108.412 101.457 108.245 94.9662C108.078 88.4751 110.168 82.127 114.157 77.004C118.147 71.8809 123.79 68.2999 130.124 66.8713C136.458 65.4427 143.091 66.2549 148.894 69.1695C154.696 72.0842 159.308 76.9208 161.944 82.855C164.579 88.7893 165.076 95.4539 163.348 101.713C161.62 107.972 157.775 113.438 152.468 117.18C146.392 121.464 138.864 123.162 131.537 121.901Z" fill="#37474F"/>
<path opacity="0.3" d="M124.043 74.6492C126.554 73.0075 129.381 71.9089 132.341 71.424C133.845 71.1577 135.372 71.0418 136.9 71.078C138.443 71.1194 139.979 71.3063 141.487 71.636C144.522 72.3633 147.372 73.7145 149.857 75.6034C152.295 77.4618 154.367 79.7569 155.967 82.372C153.843 80.298 151.518 78.4417 149.025 76.831C147.799 76.067 146.513 75.4027 145.18 74.8445C143.868 74.2719 142.504 73.8253 141.107 73.5109C138.315 72.8622 135.438 72.6513 132.581 72.886C129.674 73.1274 126.808 73.7194 124.043 74.6492Z" fill="#EBEBEB"/>
<path opacity="0.3" d="M141.581 115.897C138.715 116.792 135.693 117.079 132.709 116.739C131.194 116.587 129.699 116.282 128.245 115.83C126.771 115.363 125.345 114.755 123.988 114.016C121.272 112.49 118.904 110.415 117.035 107.923C115.196 105.469 113.828 102.695 113 99.7425C114.478 102.316 116.209 104.735 118.168 106.963C119.139 108.034 120.195 109.025 121.326 109.926C122.433 110.835 123.623 111.638 124.88 112.325C127.389 113.712 130.098 114.698 132.91 115.249C135.764 115.812 138.675 116.029 141.581 115.897Z" fill="#EBEBEB"/>
<path d="M70.9722 132C74.3481 136.883 78.2262 143.16 84.3251 145.99C84.9944 146.319 85.7544 146.415 86.4846 146.263C89.1853 147.58 90.6138 146.698 90.6138 146.698C93.5042 147.15 94.8434 146.045 94.8434 146.045C94.8434 146.045 98.0296 147.552 99.2628 145.777C100.647 143.785 95.9148 142.061 93.8669 139.517C89.2132 133.68 84.2303 124.088 83.0585 122.275L70.9722 132Z" fill="#D3766A"/>
<path d="M84.6931 136.827C86.0347 138.559 87.4925 140.198 89.0567 141.732C90.8705 143.294 92.7992 144.717 94.8264 145.99C94.8394 145.998 94.8486 146.011 94.8521 146.027C94.8556 146.042 94.8533 146.058 94.8454 146.071C94.8376 146.085 94.825 146.095 94.81 146.099C94.7951 146.104 94.779 146.102 94.765 146.096C90.6052 144.023 87.0942 140.848 84.615 136.916C84.5592 136.799 84.6262 136.743 84.6931 136.827Z" fill="#263238"/>
<path d="M80.7651 139.126C82.2215 140.694 84.7994 143.434 90.6473 146.631C90.6473 146.631 90.6473 146.681 90.6473 146.67C86.7022 145.15 83.2589 142.561 80.7037 139.193C80.6088 139.087 80.6702 139.02 80.7651 139.126Z" fill="#263238"/>
<path d="M78.6779 140.398C81.2558 142.971 83.2088 144.265 86.4899 146.246C86.4899 146.246 86.4899 146.291 86.4899 146.28C82.5392 144.422 81.3172 143.3 78.6109 140.476C78.4826 140.376 78.5774 140.298 78.6779 140.398Z" fill="#263238"/>
<path d="M68.2602 133.329L83.8842 121.131L74.7665 108.38C77.2551 102.594 81.4625 91.1549 82.5785 86.8917C83.8898 81.8976 81.4625 81.0104 77.5565 84.5035C68.5448 92.4941 58.5845 107.192 58.1939 110.172C57.6191 114.457 68.2602 133.329 68.2602 133.329Z" fill="#07AEAF"/>
<path d="M67.719 128.072C68.5393 127.146 72.5178 123.915 73.5222 123.123C74.5266 122.33 78.639 119.284 79.6602 118.469C79.716 118.424 79.7941 118.469 79.7383 118.542C78.7339 119.362 74.8447 122.732 73.8514 123.536C72.8582 124.339 68.8294 127.514 67.7525 128.122C67.7246 128.145 67.6911 128.106 67.719 128.072Z" fill="#263238"/>
<path d="M80.4303 94.4806C78.9739 98.9446 76.9261 103.515 75.2074 107.873C75.1293 108.068 75.0568 108.246 75.001 108.431C75.0095 108.405 75.0095 108.378 75.001 108.352C76.9707 111.511 79.5431 114.842 81.697 117.939L83.9011 121.08L83.4714 121.393L83.8676 121.036V121.075L81.4849 118.062C79.1804 114.993 76.5466 111.773 74.5323 108.525C74.4884 108.439 74.4765 108.34 74.4988 108.246C74.6606 107.722 74.8615 107.248 75.0568 106.74C76.675 102.8 78.7396 98.3252 80.4415 94.4359L80.4303 94.4806Z" fill="#263238"/>
<path d="M80.5699 95.418C80.2979 96.0999 79.8787 96.7134 79.3423 97.2147C79.7608 96.6288 80.1067 95.9704 80.5699 95.418Z" fill="#263238"/>
<path d="M81.3677 82.026C81.3677 82.026 85.4746 92.0309 89.4531 92.4941C92.4272 92.8456 91.992 86.769 91.992 86.769C91.992 86.769 89.2299 78.7617 81.3677 82.026Z" fill="#D3766A"/>
<path d="M85.4022 82.7012C85.3185 83.3429 86.6298 88.3481 89.5537 89.0345C91.0715 89.386 92.1373 84.6207 92.1373 84.6207L92.3493 84.2971L95.3513 79.7438L90.9543 73.7676L90.2959 72.9529C90.2959 72.9529 89.5593 74.2531 88.6553 75.8824L88.5214 76.1112C88.4712 76.206 88.421 76.2897 88.3708 76.3734C88.2368 76.619 88.0918 76.8645 87.9578 77.1156C87.8239 77.3667 87.757 77.4894 87.6565 77.6736L87.344 78.2707C86.5977 79.7021 85.9489 81.1823 85.4022 82.7012Z" fill="#D3766A"/>
<path d="M88.6326 75.888C88.6045 77.4762 88.9223 79.0515 89.5641 80.5046C90.2058 81.9576 91.156 83.2536 92.3489 84.3026L95.3509 79.7493L90.9539 73.7676L90.2954 72.9529C90.2954 72.9529 89.5365 74.253 88.6326 75.888Z" fill="#263238"/>
<path d="M104.485 71.1952C105.925 80.6812 100.418 82.5952 98.381 82.9132C96.5228 83.1978 90.1784 83.912 87.779 74.6492C85.3796 65.3864 89.28 61.7036 93.504 60.822C97.7281 59.9404 103.046 61.7315 104.485 71.1952Z" fill="#D3766A"/>
<path d="M87.8406 74.5655C89.6652 74.8501 90.2455 70.6595 90.2455 70.6595C90.2455 70.6595 98.0575 69.5435 98.9169 63.227C99.8266 65.8383 101.71 67.9973 104.173 69.2534C104.173 69.2534 104.09 62.2895 98.5932 60.7829C98.5932 60.7829 91.8191 58.1045 87.8182 63.4279C83.8174 68.7512 86.6185 74.3758 87.8406 74.5655Z" fill="#263238"/>
<path d="M98.9556 62.7694C99.0217 63.7526 98.8752 64.7384 98.5259 65.6598C98.1919 66.5978 97.6676 67.4565 96.9858 68.182C96.8095 68.3616 96.6232 68.5312 96.4278 68.6898L96.1488 68.9409C96.054 69.0134 95.948 69.086 95.8475 69.1529C95.6411 69.2924 95.4402 69.4375 95.2282 69.5658C95.0161 69.6942 94.7929 69.7946 94.5697 69.9006C94.4581 69.9509 94.3521 70.0123 94.2349 70.0569L93.8889 70.1852L93.197 70.4252C92.7227 70.5424 92.2429 70.6372 91.7686 70.7265C92.2205 70.5424 92.6837 70.4084 93.1245 70.2243L93.7773 69.9286L94.1066 69.7779C94.2126 69.7221 94.313 69.6607 94.4135 69.5993L95.0273 69.2366C95.2226 69.1083 95.4067 68.9576 95.5853 68.8181L95.8698 68.6117L96.1321 68.3717C96.3077 68.2166 96.4753 68.0527 96.6343 67.8807C97.2812 67.1916 97.8059 66.3971 98.1856 65.5315C98.3809 65.0973 98.5395 64.6474 98.6599 64.1867C98.8008 63.7241 98.8998 63.2498 98.9556 62.7694Z" fill="#263238"/>
<path d="M89.7824 74.214C89.7824 74.214 87.5058 71.3682 86.2001 72.1996C84.8944 73.031 86.7581 77.2216 88.3707 77.7405C88.5752 77.8177 88.7931 77.8527 89.0115 77.8433C89.2298 77.834 89.444 77.7805 89.6411 77.6861C89.8382 77.5917 90.0141 77.4584 90.1583 77.2942C90.3025 77.13 90.4119 76.9382 90.4799 76.7306L89.7824 74.214Z" fill="#D3766A"/>
<path d="M86.7578 73.416V73.4607C87.9017 73.8401 88.5546 74.8334 89.0345 75.8824C88.963 75.7746 88.8689 75.6836 88.7588 75.6158C88.6487 75.5479 88.5251 75.5048 88.3967 75.4894C88.2682 75.474 88.138 75.4867 88.015 75.5267C87.8919 75.5666 87.779 75.6327 87.6841 75.7206C87.6841 75.7206 87.6841 75.7875 87.7176 75.782C87.9089 75.7054 88.1193 75.6907 88.3194 75.7397C88.5195 75.7887 88.6993 75.8991 88.8336 76.0554C89.05 76.3189 89.2371 76.6051 89.3916 76.9091C89.453 77.004 89.6259 76.9091 89.5813 76.8254C89.5255 75.3802 88.2923 73.4607 86.7578 73.416Z" fill="#263238"/>
<path d="M103.197 71.5412C102.973 71.5412 102.761 71.4854 102.538 71.4519C102.303 71.4499 102.075 71.3738 101.885 71.2343C101.836 71.1768 101.807 71.105 101.802 71.0296C101.797 70.9543 101.816 70.8793 101.857 70.8158C101.959 70.7043 102.089 70.6218 102.233 70.5767C102.377 70.5316 102.53 70.5255 102.678 70.5591C102.986 70.5804 103.275 70.718 103.487 70.9441C103.532 70.9978 103.561 71.0635 103.57 71.1333C103.579 71.2031 103.567 71.274 103.536 71.3373C103.506 71.4005 103.457 71.4535 103.397 71.4897C103.336 71.5259 103.267 71.5438 103.197 71.5412Z" fill="#263238"/>
<path d="M96.9193 70.7711C97.1369 70.7153 97.3322 70.6316 97.5442 70.5591C97.7761 70.5123 97.9871 70.3932 98.1469 70.2187C98.1844 70.1537 98.1998 70.0783 98.1908 70.0038C98.1817 69.9294 98.1487 69.8598 98.0967 69.8058C97.9762 69.7145 97.8336 69.657 97.6835 69.6394C97.5334 69.6217 97.3813 69.6445 97.2429 69.7053C96.9403 69.7949 96.6817 69.9938 96.5175 70.2633C96.4914 70.3243 96.4823 70.3912 96.491 70.4569C96.4998 70.5226 96.5261 70.5848 96.5673 70.6368C96.6084 70.6888 96.6628 70.7287 96.7248 70.7524C96.7868 70.776 96.8539 70.7825 96.9193 70.7711Z" fill="#263238"/>
<path d="M98.2693 72.6906C98.2693 72.6906 98.2246 72.7297 98.2246 72.7576C98.3083 73.4049 98.2972 74.1638 97.728 74.4316C97.728 74.4316 97.728 74.4762 97.728 74.4707C98.4478 74.2977 98.4534 73.2933 98.2693 72.6906Z" fill="#263238"/>
<path d="M97.65 72.0713C96.5954 72.0713 96.7126 74.1972 97.6891 74.1805C98.6656 74.1638 98.5093 72.0489 97.65 72.0713Z" fill="#263238"/>
<path d="M97.2205 72.2052C97.0419 72.3335 96.8745 72.5567 96.6625 72.5902C96.4504 72.6237 96.1993 72.4172 96.0208 72.2163C96.0208 72.2163 95.9873 72.2164 95.9873 72.2443C95.9873 72.646 96.1826 73.0533 96.6178 73.0868C97.0531 73.1203 97.2819 72.7465 97.36 72.3335C97.36 72.261 97.2874 72.1494 97.2205 72.2052Z" fill="#263238"/>
<path d="M101.919 72.473C101.919 72.473 101.975 72.5009 101.975 72.5288C101.975 73.1817 102.081 73.9294 102.678 74.1303V74.1693C101.947 74.0856 101.813 73.098 101.919 72.473Z" fill="#263238"/>
<path d="M102.482 71.7699C103.531 71.6583 103.676 73.7676 102.705 73.868C101.735 73.9685 101.606 71.8648 102.482 71.7699Z" fill="#263238"/>
<path d="M102.907 71.8536C103.096 71.9597 103.292 72.1605 103.515 72.1661C103.738 72.1717 103.95 71.9373 104.106 71.7141H104.14C104.179 72.1159 104.05 72.5456 103.621 72.6348C103.191 72.7241 102.923 72.3782 102.795 71.9764C102.767 71.9262 102.828 71.809 102.907 71.8536Z" fill="#263238"/>
<path d="M101.087 75.33C101.087 75.33 101.244 76.3176 101.249 76.7808C100.335 76.802 99.4276 76.9504 98.554 77.2216C98.3531 77.2941 98.3531 77.1212 98.554 76.9761C99.2313 76.5575 100.018 76.3515 100.814 76.3846C100.842 76.2563 100.552 74.8668 100.624 74.8613C100.988 74.8867 101.347 74.9618 101.69 75.0845C101.428 73.0143 100.842 71.0055 100.619 68.9465C100.619 68.9324 100.624 68.9189 100.633 68.9079C100.642 68.8969 100.654 68.889 100.668 68.8853C100.681 68.8816 100.696 68.8822 100.709 68.8872C100.722 68.8922 100.734 68.9012 100.741 68.913C101.432 71.0483 101.913 73.2461 102.175 75.4751C102.242 75.7373 101.277 75.3969 101.087 75.33Z" fill="#263238"/>
<path d="M100.117 76.8589C100.117 76.8589 99.6869 77.9749 99.0006 78.1033C98.1915 78.2316 97.918 77.2551 98.8108 76.8366C99.2398 76.7235 99.6917 76.7312 100.117 76.8589Z" fill="#263238"/>
<path d="M99.7818 77.4839C99.6051 77.785 99.3194 78.0068 98.9838 78.1033C98.9034 78.1255 98.8191 78.1305 98.7366 78.1178C98.6541 78.1051 98.5752 78.0752 98.5051 78.0298C98.435 77.9845 98.3753 77.9249 98.3299 77.8548C98.2845 77.7848 98.2544 77.7059 98.2417 77.6234C99.0675 77.1379 99.5307 77.2607 99.7818 77.4839Z" fill="#FF99BA"/>
<path d="M48.2503 47.7704C48.2484 50.6248 49.0401 53.4234 50.537 55.8538C52.0339 58.2842 54.1769 60.2506 56.7268 61.5333C59.2767 62.8161 62.133 63.3647 64.9767 63.1179C67.8203 62.8711 70.5394 61.8386 72.8302 60.1357L80.3799 62.0664L77.2384 55.0356C78.3445 52.9699 78.9648 50.6792 79.0523 48.3377C79.1397 45.9962 78.6919 43.6656 77.7429 41.5232C76.7939 39.3808 75.3688 37.4831 73.5759 35.9745C71.783 34.4659 69.6697 33.3861 67.3966 32.8173C65.1235 32.2484 62.7507 32.2056 60.4586 32.692C58.1665 33.1784 56.0155 34.1812 54.1693 35.6241C52.3232 37.067 50.8304 38.912 49.8047 41.0188C48.779 43.1255 48.2474 45.4384 48.2503 47.7816V47.7704Z" fill="white"/>
<path d="M48.2503 47.7704C48.4903 60.6044 62.5909 67.3952 72.8804 59.9459L80.4413 61.8264L80.1567 62.1668L77.0041 55.1472L76.9482 55.0244C81.7024 46.4647 76.8757 35.3549 67.373 32.989C57.8368 30.3943 48.1945 37.944 48.2503 47.7704ZM48.2503 47.7704C48.2894 34.6574 63.5842 27.4815 73.7063 35.8292C79.2863 40.3546 81.0161 48.8641 77.4728 55.1639V54.9295L80.592 61.9659L80.7985 62.429L80.3074 62.3007L72.7744 60.331C63.121 67.6408 48.3173 60.7662 48.2224 47.7704H48.2503Z" fill="#263238"/>
<path d="M64.661 49.8182V51.4922C64.6648 51.6618 64.6342 51.8304 64.5711 51.9879C64.5079 52.1453 64.4135 52.2883 64.2936 52.4082C64.1736 52.5282 64.0306 52.6226 63.8732 52.6857C63.7158 52.7489 63.5472 52.7795 63.3776 52.7756C63.0377 52.7742 62.7121 52.6385 62.4717 52.3981C62.2313 52.1578 62.0957 51.8322 62.0942 51.4922V48.7971C62.0942 48.7971 62.0942 48.7971 62.0942 48.7413C62.0942 48.6855 62.0942 48.7413 62.0942 48.6911C62.104 48.3538 62.2424 48.033 62.481 47.7945C62.7196 47.5559 63.0403 47.4175 63.3776 47.4077C63.7734 47.425 64.1687 47.3619 64.5395 47.2223C64.9103 47.0828 65.249 46.8696 65.5352 46.5956C65.8214 46.3216 66.0492 45.9925 66.2048 45.6281C66.3604 45.2637 66.4406 44.8716 66.4406 44.4754C66.4406 44.0792 66.3604 43.6871 66.2048 43.3227C66.0492 42.9583 65.8214 42.6292 65.5352 42.3552C65.249 42.0812 64.9103 41.868 64.5395 41.7285C64.1687 41.5889 63.7734 41.5258 63.3776 41.5431C62.8705 41.5402 62.3714 41.6699 61.9299 41.9196C61.4884 42.1692 61.1199 42.5299 60.861 42.966C60.7761 43.1149 60.6624 43.2454 60.5265 43.3498C60.3906 43.4542 60.2352 43.5305 60.0694 43.5741C59.9037 43.6178 59.7309 43.6279 59.5612 43.604C59.3914 43.5801 59.2282 43.5225 59.081 43.4347C58.9366 43.3491 58.8104 43.2358 58.7098 43.1013C58.6092 42.9669 58.5361 42.8139 58.4946 42.6512C58.4532 42.4885 58.4442 42.3192 58.4682 42.153C58.4922 41.9868 58.5488 41.8269 58.6346 41.6826C59.0916 40.8924 59.7378 40.2282 60.5151 39.7497C61.2925 39.2712 62.1765 38.9934 63.0879 38.9414C63.9992 38.8893 64.9092 39.0645 65.7359 39.4513C66.5627 39.8381 67.2804 40.4243 67.8245 41.1573C68.3685 41.8902 68.7219 42.7469 68.8527 43.6503C68.9836 44.5537 68.8879 45.4754 68.5742 46.3326C68.2605 47.1898 67.7386 47.9556 67.0555 48.5611C66.3725 49.1666 65.5496 49.5929 64.661 49.8015V49.8182ZM64.661 55.5545V56.0232C64.6648 56.1928 64.6342 56.3614 64.5711 56.5188C64.5079 56.6762 64.4135 56.8192 64.2936 56.9392C64.1736 57.0591 64.0306 57.1535 63.8732 57.2167C63.7158 57.2798 63.5472 57.3104 63.3776 57.3066C63.0372 57.3066 62.7108 57.1714 62.4701 56.9307C62.2294 56.69 62.0942 56.3636 62.0942 56.0232V55.5545C62.0985 55.2155 62.2351 54.8915 62.4749 54.6518C62.7146 54.412 63.0386 54.2754 63.3776 54.2711C63.5465 54.2696 63.7141 54.3018 63.8705 54.3657C64.0269 54.4297 64.1689 54.5242 64.2884 54.6437C64.4079 54.7631 64.5024 54.9052 64.5663 55.0616C64.6303 55.218 64.6625 55.3855 64.661 55.5545Z" fill="#07AEAF"/>
<path d="M25.5286 261.289C98.5484 260.943 180.452 260.943 253.472 261.289C180.452 261.63 98.5484 261.63 25.5286 261.289Z" fill="#263238"/>
</g>
</svg>
