<svg width="64" height="64" viewBox="0 0 64 64" fill="none" xmlns="http://www.w3.org/2000/svg">
<g filter="url(#filter0_dd_35_607)">
<rect x="4" y="3" width="56" height="56" rx="28" fill="#07AEAF"/>
<path d="M43.6172 25.8372L43.2892 26.5919C43.2379 26.7148 43.1514 26.8198 43.0406 26.8936C42.9298 26.9674 42.7997 27.0068 42.6665 27.0068C42.5334 27.0068 42.4032 26.9674 42.2924 26.8936C42.1816 26.8198 42.0951 26.7148 42.0438 26.5919L41.7158 25.8372C41.1391 24.5022 40.083 23.4318 38.7558 22.8372L37.7438 22.3852C37.6211 22.3288 37.5171 22.2383 37.4441 22.1245C37.3712 22.0107 37.3325 21.8784 37.3325 21.7432C37.3325 21.6081 37.3712 21.4758 37.4441 21.362C37.5171 21.2482 37.6211 21.1577 37.7438 21.1012L38.6998 20.6759C40.0604 20.0644 41.1346 18.9544 41.7012 17.5746L42.0385 16.7599C42.088 16.6337 42.1745 16.5254 42.2865 16.449C42.3985 16.3726 42.5309 16.3318 42.6665 16.3318C42.8021 16.3318 42.9345 16.3726 43.0465 16.449C43.1585 16.5254 43.245 16.6337 43.2945 16.7599L43.6318 17.5732C44.1978 18.9533 45.2716 20.0638 46.6318 20.6759L47.5892 21.1026C47.7116 21.1592 47.8152 21.2497 47.8878 21.3633C47.9605 21.477 47.9991 21.609 47.9991 21.7439C47.9991 21.8788 47.9605 22.0108 47.8878 22.1245C47.8152 22.2381 47.7116 22.3286 47.5892 22.3852L46.5758 22.8359C45.2489 23.431 44.1933 24.5019 43.6172 25.8372ZM42.6665 29.6666C43.5715 29.6673 44.47 29.5144 45.3238 29.2146C45.3301 29.3657 45.3332 29.5163 45.3332 29.6666C45.3332 32.4955 44.2094 35.2086 42.209 37.209C40.2086 39.2094 37.4955 40.3332 34.6665 40.3332V44.9999C27.9998 42.3332 18.6665 38.3332 18.6665 29.6666C18.6665 26.8376 19.7903 24.1245 21.7907 22.1241C23.7911 20.1237 26.5042 18.9999 29.3332 18.9999H34.6665C34.8176 18.9999 34.9683 19.003 35.1185 19.0092C34.6936 20.2158 34.5642 21.5067 34.7412 22.7736C34.9182 24.0404 35.3965 25.2464 36.1358 26.2903C36.8751 27.3342 37.854 28.1856 38.9903 28.7731C40.1267 29.3605 41.3873 29.6669 42.6665 29.6666Z" fill="#F8FFFF"/>
</g>
<defs>
<filter id="filter0_dd_35_607" x="0" y="0" width="64" height="64" filterUnits="userSpaceOnUse" color-interpolation-filters="sRGB">
<feFlood flood-opacity="0" result="BackgroundImageFix"/>
<feColorMatrix in="SourceAlpha" type="matrix" values="0 0 0 0 0 0 0 0 0 0 0 0 0 0 0 0 0 0 127 0" result="hardAlpha"/>
<feMorphology radius="1" operator="dilate" in="SourceAlpha" result="effect1_dropShadow_35_607"/>
<feOffset dy="1"/>
<feGaussianBlur stdDeviation="1.5"/>
<feColorMatrix type="matrix" values="0 0 0 0 0 0 0 0 0 0 0 0 0 0 0 0 0 0 0.15 0"/>
<feBlend mode="normal" in2="BackgroundImageFix" result="effect1_dropShadow_35_607"/>
<feColorMatrix in="SourceAlpha" type="matrix" values="0 0 0 0 0 0 0 0 0 0 0 0 0 0 0 0 0 0 127 0" result="hardAlpha"/>
<feOffset dy="1"/>
<feGaussianBlur stdDeviation="1"/>
<feColorMatrix type="matrix" values="0 0 0 0 0 0 0 0 0 0 0 0 0 0 0 0 0 0 0.3 0"/>
<feBlend mode="normal" in2="effect1_dropShadow_35_607" result="effect2_dropShadow_35_607"/>
<feBlend mode="normal" in="SourceGraphic" in2="effect2_dropShadow_35_607" result="shape"/>
</filter>
</defs>
</svg>
