<svg width="25" height="24" viewBox="0 0 25 24" fill="none" xmlns="http://www.w3.org/2000/svg">
<path d="M6 7.49952L3 7.99952C3.815 4.24252 6.182 3.00302 8.5 2.99952C9.9985 2.99702 11.476 3.51252 12.5 3.99952C13.524 3.51252 15 2.99952 16.5 2.99952C18.8055 2.99952 21.185 4.24252 22 7.99952L19 7.49952C19.2795 8.54952 19.894 10.3955 19 11.9995C17.51 10.663 14.065 8.64502 12.5 7.49952C10.935 8.64502 7.49 10.663 6 11.9995C5.106 10.396 5.7205 8.54952 6 7.49952Z" fill="#07AEAF" stroke="#07AEAF" stroke-width="2" stroke-linecap="round" stroke-linejoin="round"/>
<path d="M12.5 7.5C12.1225 9.4445 11.5945 14.2665 12.5 18" stroke="#07AEAF" stroke-width="2" stroke-linecap="round" stroke-linejoin="round"/>
<path d="M6.5 21H18.5C16.1065 18.7075 15 18.0025 12.5 18C10 17.9975 7.446 19.691 6.5 21Z" fill="#07AEAF" stroke="#07AEAF" stroke-width="2" stroke-linecap="round" stroke-linejoin="round"/>
</svg>
