<svg xmlns="http://www.w3.org/2000/svg" fill="none" viewBox="0 0 25 24"><path d="M6 7.5 3 8c.81-3.76 3.18-5 5.5-5 1.5 0 2.98.51 4 1 1.02-.49 2.5-1 4-1 2.31 0 4.68 1.24 5.5 5l-3-.5c.28 1.05.89 2.9 0 4.5-1.49-1.34-4.94-3.35-6.5-4.5C10.94 8.65 7.49 10.66 6 12c-.89-1.6-.28-3.45 0-4.5" fill="#07AEAF" stroke="#07AEAF" stroke-width="2" stroke-linecap="round" stroke-linejoin="round"/><path d="M12.5 7.5c-.38 1.94-.91 6.77 0 10.5" stroke="#07AEAF" stroke-width="2" stroke-linecap="round" stroke-linejoin="round"/><path d="M6.5 21h12c-2.39-2.29-3.5-3-6-3a8.3 8.3 0 00-6 3" fill="#07AEAF" stroke="#07AEAF" stroke-width="2" stroke-linecap="round" stroke-linejoin="round"/></svg>