<svg xmlns="http://www.w3.org/2000/svg" fill="none" viewBox="0 0 24 24"><path d="M19.5 12q0-.34-.03-.68l1.86-1.41a1 1 0 00.26-1.3l-1.87-3.23a1 1 0 00-.54-.45 1 1 0 00-.71.03l-2.15.91a8 8 0 00-1.17-.68l-.29-2.31a1 1 0 00-.99-.88h-3.73a1 1 0 00-1 .88l-.29 2.31q-.62.29-1.17.68l-2.15-.91a1 1 0 00-1.25.42L2.41 8.62a1 1 0 00.26 1.3l1.86 1.41q-.06.67 0 1.35l-1.86 1.41a1 1 0 00-.26 1.3l1.87 3.23c.25.44.79.62 1.25.42l2.15-.91q.55.4 1.17.68l.29 2.31a1 1 0 00.99.88h3.73a1 1 0 00.99-.88l.29-2.31q.62-.29 1.17-.68l2.15.91c.46.2 1 .02 1.25-.42l1.87-3.23a1 1 0 00-.26-1.3l-1.86-1.41q.04-.34.04-.68m-7.46 3.5a3.5 3.5 0 110-7 3.5 3.5 0 010 7" fill="#07AEAF"/></svg>